<?xml version="1.0" encoding="iso-8859-1"?>
<!-- Generator: Adobe Illustrator 21.0.0, SVG Export Plug-In . SVG Version: 6.00 Build 0)  -->
<svg version="1.1" id="Capa_1" xmlns="http://www.w3.org/2000/svg" xmlns:xlink="http://www.w3.org/1999/xlink" x="0px" y="0px"
	 viewBox="0 0 512 512" style="enable-background:new 0 0 512 512;" xml:space="preserve">
<path style="fill:#C6C5CA;" d="M240.555,302.837l62.282-62.282l110.973-25.056l84.226-201.535L296.501,98.19l-25.056,110.973
	l-62.282,62.282L98.189,296.501L13.963,498.036l201.535-84.226L240.555,302.837L240.555,302.837z"/>
<rect x="211.96" y="233.799" transform="matrix(0.7071 -0.7071 0.7071 0.7071 -106.0381 255.9975)" style="fill:#FFE477;" width="88.075" height="44.397"/>
<polygon style="fill:#898890;" points="128.188,296.501 239.162,271.445 301.444,209.163 326.5,98.19 491.687,29.155 
	498.036,13.964 296.501,98.19 271.445,209.163 209.163,271.445 98.189,296.501 13.964,498.036 50.311,482.845 "/>
<polygon style="fill:#FFB655;" points="239.162,271.445 286.445,224.163 271.445,209.163 209.163,271.445 240.555,302.837 
	255.554,287.838 "/>
<path d="M512,0L290.037,92.764l-25.43,112.631l-59.213,59.213L92.763,290.038L0,512l221.962-92.764l25.432-112.632l59.213-59.213
	l112.631-25.431L512,0z M271.445,219.769l20.786,20.786l-10.155,10.155l-20.786-20.786L271.445,219.769z M261.316,271.47
	l-20.786-20.786l10.155-10.155l20.786,20.786L261.316,271.47z M229.923,261.291l20.786,20.786l-10.155,10.155l-20.786-20.786
	L229.923,261.291z M209.036,408.383L27.929,484.072l75.688-181.108l103.166-23.293l7.47,7.47l-26.079,26.079l-46.857-12.857
	l-3.969,14.465l38.62,10.596L46.052,455.342l10.607,10.605L186.575,336.03l10.597,38.619l14.464-3.969l-12.856-46.855l26.079-26.079
	l7.471,7.471L209.036,408.383z M305.218,232.329l-7.47-7.47l26.232-26.232l46.855,12.856l3.969-14.465l-38.619-10.596l14.877-14.877
	l-10.607-10.605l-14.876,14.877l-10.597-38.62l-14.464,3.969l12.856,46.856l-26.232,26.232l-7.47-7.47l23.292-103.165
	l181.108-75.689l-75.689,181.107L305.218,232.329z"/>
<g>
	
		<rect x="447.995" y="49.008" transform="matrix(0.7071 -0.7071 0.7071 0.7071 93.4547 338.6343)" style="fill:#FFFFFF;" width="14.999" height="14.999"/>
	
		<rect x="430.326" y="66.7" transform="matrix(0.7071 -0.7071 0.7071 0.7071 75.7692 331.3222)" style="fill:#FFFFFF;" width="14.999" height="14.999"/>
	
		<rect x="344.649" y="112.538" transform="matrix(0.7071 -0.7071 0.7071 0.7071 29.9291 312.3311)" style="fill:#FFFFFF;" width="94.665" height="14.999"/>
</g>
<g>
</g>
<g>
</g>
<g>
</g>
<g>
</g>
<g>
</g>
<g>
</g>
<g>
</g>
<g>
</g>
<g>
</g>
<g>
</g>
<g>
</g>
<g>
</g>
<g>
</g>
<g>
</g>
<g>
</g>
</svg>
