<svg height="499pt" viewBox="-1 0 499 499.312" width="499pt" xmlns="http://www.w3.org/2000/svg" xmlns:xlink="http://www.w3.org/1999/xlink"><linearGradient id="a" gradientUnits="userSpaceOnUse" x1="248.156" x2="248.156" y1="499.312" y2="-.0008"><stop offset="0" stop-color="#9f2fff"/><stop offset="1" stop-color="#0bb1d3"/></linearGradient><path d="m304.15625 91.3125v-35.3125l-56-56-56 56v251.3125h-16c-8.824219 0-16 7.175781-16 16v16c0 8.824219 7.175781 16 16 16h32v80h-16v36.527344l45.785156 27.472656h20.4375l45.777344-27.472656v-36.527344h-16v-80h32c8.824219 0 16-7.175781 16-16v-16c0-8.824219-7.175781-16-16-16h-16zm-96-28.6875 40-40 40 40v76.6875c0 4.40625-3.585938 8-8 8-4.417969 0-8-3.59375-8-8v-56c0-13.234375-10.769531-24-24-24s-24 10.765625-24 24v16c0 4.40625-3.585938 8-8 8-4.417969 0-8-3.59375-8-8zm80 400.160156-34.214844 20.527344h-11.5625l-34.222656-20.527344v-11.472656h80zm-16-91.472656h-32v16h32v48h-48v-16h32v-16h-32v-48h48zm48-32h-144l-.015625-16h144.015625zm-64-32v-56h-16v56h-32v-185.472656c2.511719.894531 5.183594 1.472656 8 1.472656 13.230469 0 24-10.769531 24-24v-16c0-4.410156 3.582031-8 8-8 4.414062 0 8 3.589844 8 8v56c0 13.230469 10.769531 24 24 24 2.816406 0 5.488281-.578125 8-1.472656v145.472656zm-16-136h16v64h-16zm-88 256c0-4.417969-3.585938-8-8-8h-40c-13.230469 0-24-10.769531-24-24 0-13.234375 10.769531-24 24-24h88v16h-88c-4.417969 0-8 3.582031-8 8 0 4.414062 3.582031 8 8 8h40c13.230469 0 24 10.765625 24 24 0 13.230469-10.769531 24-24 24h-120c-4.417969 0-8 3.582031-8 8 0 4.414062 3.582031 8 8 8h152v16h-152c-13.230469 0-24-10.769531-24-24 0-13.234375 10.769531-24 24-24h120c4.414062 0 8-3.585938 8-8zm344-16c0 13.230469-10.769531 24-24 24h-96c-4.417969 0-8 3.582031-8 8 0 4.414062 3.582031 8 8 8h56c13.230469 0 24 10.765625 24 24 0 13.230469-10.769531 24-24 24h-64v-16h64c4.414062 0 8-3.585938 8-8 0-4.417969-3.585938-8-8-8h-56c-13.230469 0-24-10.769531-24-24 0-13.234375 10.769531-24 24-24h96c4.414062 0 8-3.585938 8-8 0-4.417969-3.585938-8-8-8h-144c-13.230469 0-24-10.769531-24-24v-8h16v8c0 4.414062 3.582031 8 8 8h144c13.230469 0 24 10.765625 24 24zm0 0" fill="url(#a)"/></svg>