<svg height="512pt" viewBox="-159 0 512 512.0005" width="512pt" xmlns="http://www.w3.org/2000/svg"><path d="m102.089844 9.113281c18.644531 12.085938 78.894531 58.835938 83.652344 160.800781.308593 6.578126-5.652344 11.691407-12.097657 10.339844l-74.953125-15.738281c-1.359375-.285156-2.765625-.285156-4.128906 0l-74.953125 15.738281c-6.445313 1.351563-12.40625-3.761718-12.097656-10.339844 4.757812-101.964843 65.011719-148.714843 83.65625-160.800781 3.324219-2.15625 7.59375-2.15625 10.921875 0zm0 0" fill="#dad0cd"/><path d="m74.101562 22.109375c6.988282-6.105469 13.015626-10.371094 17.0625-12.992187 3.324219-2.160157 7.601563-2.160157 10.925782 0 18.636718 12.078124 78.894531 58.828124 83.652344 160.800781.304687 6.578125-5.652344 11.6875-12.097657 10.332031l-20.480469-4.296875c-5.691406-92.339844-57.140624-138.316406-79.0625-153.84375zm0 0" fill="#c1bab8"/><path d="m119.402344 184.996094h-45.550782v296.730468c0 12.578126 10.199219 22.773438 22.777344 22.773438s22.773438-10.195312 22.773438-22.773438zm0 0" fill="#cf8671"/><path d="m119.398438 184.996094v296.722656c0 6.292969-2.550782 11.980469-6.671876 16.113281-4.117187 4.117188-9.808593 6.667969-16.097656 6.667969-3.011718 0-5.871094-.578125-8.5-1.648438 2.867188-1.152343 5.449219-2.871093 7.597656-5.019531 4.121094-4.132812 6.671876-9.820312 6.671876-16.113281v-296.722656zm0 0" fill="#be7560"/><path d="m121.148438 140.378906-20.300782-9.40625c-2.675781-1.242187-5.765625-1.242187-8.441406 0l-20.300781 9.40625c-3.550781 1.644532-5.820313 5.199219-5.820313 9.109375v42.6875c0 2.773438 2.246094 5.019531 5.019532 5.019531h50.644531c2.773437 0 5.019531-2.246093 5.019531-5.019531v-42.6875c0-3.910156-2.269531-7.46875-5.820312-9.109375zm0 0" fill="#6d6d6d"/><path d="m193.234375 169.566406c-1.769531-37.957031-11.214844-72.359375-28.066406-102.25-2.035157-3.609375-6.609375-4.886718-10.21875-2.851562-3.605469 2.035156-4.882813 6.609375-2.847657 10.21875 15.691407 27.832031 24.488282 59.988281 26.152344 95.582031.050782 1.109375-.546875 1.789063-.910156 2.097656-.351562.300781-1.101562.773438-2.15625.550781l-40.71875-8.546874v-14.878907c0-6.804687-3.988281-13.054687-10.164062-15.914062l-20.304688-9.410157c-4.683594-2.167968-10.0625-2.171874-14.746094 0l-20.300781 9.410157c-6.179687 2.859375-10.167969 9.109375-10.167969 15.914062v14.878907l-40.714844 8.546874c-1.054687.21875-1.804687-.25-2.160156-.550781-.359375-.308593-.957031-.988281-.90625-2.097656 4.59375-98.410156 62.582032-143.414063 80.246094-154.859375.839844-.542969 1.917969-.542969 2.753906 0 7.320313 4.742188 21.789063 15.386719 36.472656 33.402344 2.617188 3.210937 7.34375 3.691406 10.554688 1.074218 3.210938-2.617187 3.691406-7.339843 1.074219-10.550781-15.980469-19.605469-31.882813-31.292969-39.941407-36.515625-5.792968-3.753906-13.277343-3.753906-19.070312 0-19.183594 12.429688-82.148438 61.195313-87.0742188 166.75-.2539062 5.480469 1.9921878 10.664063 6.1679688 14.21875 3.214844 2.738282 7.203125 4.1875 11.316406 4.1875 1.210938 0 2.433594-.125 3.648438-.378906l37.632812-7.902344v12.484375c0 5.144531 3.121094 9.570313 7.566406 11.492188v278.058593c0 16.691407 13.582032 30.273438 30.273438 30.273438 16.695312 0 30.277344-13.582031 30.277344-30.273438v-27.730468c0-4.140625-3.359375-7.5-7.5-7.5-4.144532 0-7.5 3.359375-7.5 7.5v27.730468c0 8.421876-6.855469 15.273438-15.277344 15.273438s-15.273438-6.851562-15.273438-15.273438v-277.03125h7.773438v36.300782c0 4.144531 3.359375 7.5 7.5 7.5 4.144531 0 7.5-3.355469 7.5-7.5v-36.300782h7.777344v69.972657c0 4.144531 3.355468 7.5 7.5 7.5 4.140625 0 7.5-3.355469 7.5-7.5v-71c4.445312-1.921875 7.566406-6.347657 7.566406-11.492188v-12.484375l37.632812 7.898438c1.21875.257812 2.4375.382812 3.648438.382812 4.113281 0 8.101562-1.449218 11.316406-4.1875 4.175782-3.554687 6.425782-8.738281 6.167969-14.21875zm-119.449219-20.078125c0-.984375.578125-1.890625 1.472656-2.308593l20.300782-9.40625c.679687-.3125 1.457031-.3125 2.136718 0l20.300782 9.40625c.894531.417968 1.476562 1.320312 1.476562 2.308593v40.207031h-45.6875zm0 0"/><path d="m119.402344 299.828125c-4.140625 0-7.5 3.355469-7.5 7.5v114.007813c0 4.140624 3.359375 7.5 7.5 7.5s7.5-3.359376 7.5-7.5v-114.007813c0-4.140625-3.355469-7.5-7.5-7.5zm0 0"/><path d="m52.851562 96.792969c-.023437 0-.046874 0-.070312 0h-.105469c-4.140625.039062-7.46875 3.429687-7.429687 7.570312.039062 4.117188 3.390625 7.429688 7.5 7.429688h.070312.105469c4.140625-.039063 7.464844-3.429688 7.429687-7.570313-.039062-4.117187-3.390624-7.429687-7.5-7.429687zm0 0"/><path d="m67.625 94.996094h.105469c4.140625 0 7.5-3.359375 7.5-7.5 0-4.144532-3.359375-7.5-7.5-7.5h-.105469c-4.140625 0-7.5 3.355468-7.5 7.5 0 4.140625 3.359375 7.5 7.5 7.5zm0 0"/><path d="m96.628906 376.5c4.140625 0 7.5-3.359375 7.5-7.5v-17c0-4.144531-3.359375-7.5-7.5-7.5-4.144531 0-7.5 3.355469-7.5 7.5v17c0 4.140625 3.355469 7.5 7.5 7.5zm0 0"/><path d="m96.574219 395.832031h.105469c4.140624 0 7.5-3.355469 7.5-7.5s-3.359376-7.5-7.5-7.5h-.105469c-4.140625 0-7.5 3.355469-7.5 7.5s3.359375 7.5 7.5 7.5zm0 0"/></svg>