<svg height="512pt" viewBox="0 0 512 512.00036" width="512pt" xmlns="http://www.w3.org/2000/svg"><path d="m502.09375 139.683594 2.464844-107.246094c.371094-13.960938-11.046875-25.378906-25.007813-25.007812l-107.246093 2.464843c-21.515626.570313-41.46875 11.378907-53.691407 29.097657l-176.242187 255.402343 25.054687 50.167969 50.167969 25.050781 255.402344-176.238281c17.714844-12.226562 28.527344-32.175781 29.097656-53.691406zm0 0" fill="#d67046"/><path d="m242.707031 352.285156-83.003906-83.003906-17.332031 25.113281 25.050781 50.167969 50.171875 25.050781zm0 0" fill="#ca5e30"/><path d="m190.136719 342.15625 259.164062-180c9.929688-6.851562 16.046875-18.144531 16.367188-30.203125l2.324219-87.960937-87.960938 2.328124c-12.058594.316407-23.347656 6.4375-30.199219 16.363282l-180.003906 259.164062zm0 0" fill="#db9884"/><path d="m94.003906 492.878906 63.066406-81.902344-16.980468-39.078124-39.082032-16.980469-81.902343 63.066406c-14.347657 11.050781-15.714844 32.195313-2.910157 45l32.808594 32.808594c12.804688 12.804687 33.949219 11.4375 45-2.914063zm0 0" fill="#d67046"/><path d="m187.222656 296.804688-17.394531 25.042968 20.308594 20.308594 25.046875-17.394531zm0 0" fill="#d67046"/><path d="m101.007812 354.917969-23.976562 18.464843 61.574219 61.574219 18.464843-23.980469-16.980468-39.078124zm0 0" fill="#ca5e30"/><path d="m241.003906 393.027344-122.042968-122.042969c-5.523438-5.527344-14.480469-5.527344-20.007813 0l-30.933594 30.933594c-5.527343 5.527343-5.527343 14.484375 0 20.007812l122.039063 122.042969c5.527344 5.523438 14.484375 5.523438 20.007812 0l30.9375-30.9375c5.523438-5.523438 5.523438-14.480469 0-20.003906zm0 0" fill="#db9884"/><path d="m112.140625 326.214844c1.917969 0 3.839844-.734375 5.304687-2.199219l7.339844-7.339844c2.929688-2.929687 2.929688-7.679687 0-10.609375-2.929687-2.929687-7.679687-2.929687-10.609375 0l-7.339843 7.339844c-2.929688 2.929688-2.929688 7.679688 0 10.609375 1.464843 1.464844 3.386718 2.199219 5.304687 2.199219zm0 0"/><path d="m193.261719 407.335938c1.921875 0 3.839843-.734376 5.304687-2.199219l7.339844-7.339844c2.929688-2.929687 2.929688-7.679687 0-10.609375s-7.679688-2.929688-10.609375 0l-7.339844 7.339844c-2.929687 2.929687-2.929687 7.679687 0 10.609375 1.464844 1.464843 3.386719 2.199219 5.304688 2.199219zm0 0"/><path d="m162.042969 376.3125c4.660156 0 9.011719-2.890625 8.667969-8.042969-.277344-4.132812-3.855469-7.261719-7.988282-6.980469-3.125.207032-6.261718-1.03125-8.632812-3.402343-2.371094-2.371094-3.609375-5.519531-3.402344-8.632813.277344-4.132812-2.847656-7.710937-6.980469-7.988281-4.136719-.277344-7.710937 2.847656-7.988281 6.980469-.5 7.4375 2.328125 14.816406 7.761719 20.25 5.019531 5.019531 11.707031 7.816406 18.5625 7.816406zm0 0"/><path d="m43.601562 501.179688c15.800782 15.800781 42.628907 14.050781 56.246094-3.636719l57.855469-75.136719s26.925781 26.925781 26.953125 26.953125c8.328125 8.324219 22.300781 8.3125 30.617188 0 0 0 30.902343-30.902344 30.9375-30.9375 8.34375-8.34375 8.335937-22.285156 0-30.617187l-17.042969-17.042969 247.992187-171.128907c19.613282-13.535156 31.703125-35.839843 32.332032-59.691406l2.46875-107.222656c.230468-8.832031-3.082032-17.136719-9.328126-23.382812-6.246093-6.246094-14.5625-9.558594-23.355468-9.3242192l-107.269532 2.4687502c-23.824218.628906-46.128906 12.714843-59.667968 32.332031l-27.226563 39.460938c-2.355469 3.410156-1.5 8.082031 1.910157 10.433593 3.414062 2.355469 8.085937 1.496094 10.4375-1.914062l27.230468-39.457031c10.824219-15.6875 28.660156-25.351563 47.6875-25.855469l107.273438-2.46875c4.683594-.125 9.066406 1.628906 12.375 4.9375 3.304687 3.304687 5.058594 7.699219 4.933594 12.402343l-2.464844 107.21875c-.503906 19.050782-10.171875 36.890626-25.855469 47.714844l-250.261719 172.6875-16.6875-16.6875 60.167969-41.789062c3.402344-2.363282 4.246094-7.039063 1.882813-10.441406-2.367188-3.402344-7.039063-4.246094-10.441407-1.882813l-62.390625 43.332031-11.441406-11.441406 176.4375-254.03125c5.496094-7.964844 14.550781-12.871094 24.226562-13.128906l80.050782-2.113282-2.113282 80.050782c-.257812 9.671875-5.164062 18.730468-13.148437 24.238281l-166.578125 115.699219c-3.402344 2.363281-4.246094 7.039062-1.882812 10.441406 2.363281 3.402344 7.039062 4.246094 10.441406 1.882812l166.558594-115.6875c11.894531-8.207031 19.222656-21.730468 19.605468-36.179687l2.324219-87.957031c.054687-2.058594-.738281-4.046875-2.191406-5.503906-1.457031-1.457032-3.460938-2.25-5.503907-2.195313l-87.960937 2.328125c-14.445313.378906-27.96875 7.707031-36.164063 19.585938l-174.882812 251.789062-16.6875-16.6875 128.132812-185.6875c2.355469-3.410156 1.496094-8.082031-1.914062-10.4375-3.410156-2.351562-8.082031-1.496094-10.4375 1.914062l-126.566406 183.421876s-17.03125-17.027344-17.046875-17.042969c-8.34375-8.34375-22.277344-8.335938-30.613281 0l-30.9375 30.9375c-8.441407 8.441406-8.441407 22.175781 0 30.617187l26.949218 26.953125s-75.078125 57.808594-75.132812 57.855469c-17.671875 13.605469-19.386719 40.5-3.640625 56.246094 0 0 32.789062 32.789062 32.808593 32.808594zm29.625-193.871094s30.816407-30.816406 30.933594-30.933594c2.582032-2.582031 6.828125-2.570312 9.398438 0 0 0 121.613281 121.609375 122.042968 122.039062 2.566407 2.566407 2.558594 6.839844 0 9.398438 0 0-30.898437 30.898438-30.9375 30.9375-2.574218 2.574219-6.824218 2.570312-9.398437 0l-122.039063-122.042969c-2.59375-2.589843-2.59375-6.808593 0-9.398437zm-58.371093 133.085937c.417969-6.460937 3.601562-12.429687 8.730469-16.378906l76.679687-59.046875 46.742187 46.738281-59.046874 76.683594c-4.292969 5.574219-10.800782 8.773437-17.847657 8.773437-6.003906 0-11.648437-2.339843-15.902343-6.59375l-32.808594-32.808593c-4.578125-4.578125-6.964844-10.90625-6.546875-17.367188zm0 0"/></svg>