<?xml version="1.0" encoding="iso-8859-1"?>
<!-- Generator: Adobe Illustrator 19.0.0, SVG Export Plug-In . SVG Version: 6.00 Build 0)  -->
<svg version="1.1" id="Capa_1" xmlns="http://www.w3.org/2000/svg" xmlns:xlink="http://www.w3.org/1999/xlink" x="0px" y="0px"
	 viewBox="0 0 511.999 511.999" style="enable-background:new 0 0 511.999 511.999;" xml:space="preserve">
<path style="fill:#7DE2E2;" d="M30.207,292.032c18.515,25.736,59.757,63.704,132.717,39.751c0.098-0.785-25.496-64.56-25.496-64.56
	l-96.797,3.452C29.861,271.06,23.914,283.284,30.207,292.032z"/>
<path style="fill:#66D3D0;" d="M137.428,267.223l-90.221,3.218c5.272,11.532,26.174,51.075,71.586,68.944
	c13.204-0.01,27.879-2.266,44.132-7.602C163.022,330.998,137.428,267.223,137.428,267.223z"/>
<path style="fill:#A0F0F2;" d="M8.592,218.125c12.364,37.827,46.719,90.345,141.545,64.65c-0.056-1.583-17.706-72.367-17.706-72.367
	l-99.106-20.015C17.186,187.136,3.476,202.477,8.592,218.125z"/>
<path style="fill:#7DE2E2;" d="M86.59,288.429c17.389,2.482,38.328,1.181,63.546-5.651c-0.056-1.583-17.706-72.367-17.706-72.367
	l-99.106-20.015C33.324,190.395,37.988,257.654,86.59,288.429z"/>
<path style="fill:#BDFAFF;" d="M146.359,173.946c0,0-56.543-9.364-102.477-37.347c-13.324-8.117-29.766,4.18-25.897,19.295
	c10.546,41.2,40.791,95.811,125.568,89.493C143.826,243.219,146.359,173.946,146.359,173.946z"/>
<path style="fill:#7DE2E2;" d="M481.818,292.032c-18.515,25.736-59.757,63.704-132.717,39.751
	c-0.098-0.785,25.496-64.56,25.496-64.56l96.797,3.452C482.164,271.06,488.111,283.284,481.818,292.032z"/>
<path style="fill:#66D3D0;" d="M374.597,267.223l90.221,3.218c-5.272,11.532-26.174,51.075-71.586,68.944
	c-13.204-0.01-27.879-2.266-44.132-7.602C349.004,330.998,374.597,267.223,374.597,267.223z"/>
<path style="fill:#A0F0F2;" d="M503.434,218.125c-12.364,37.827-46.719,90.345-141.545,64.65
	c0.056-1.583,17.706-72.367,17.706-72.367l99.106-20.015C494.84,187.136,508.549,202.477,503.434,218.125z"/>
<path style="fill:#7DE2E2;" d="M425.435,288.429c-17.389,2.482-38.328,1.181-63.546-5.651c0.056-1.583,17.706-72.367,17.706-72.367
	l99.106-20.015C478.701,190.395,474.038,257.654,425.435,288.429z"/>
<path style="fill:#BDFAFF;" d="M365.666,173.946c0,0,56.543-9.364,102.477-37.347c13.324-8.117,29.766,4.18,25.897,19.295
	c-10.546,41.2-40.791,95.811-125.568,89.493C368.199,243.219,365.666,173.946,365.666,173.946z"/>
<path style="fill:#FF737D;" d="M386.394,146.878c-30.309-33.201-79.758-37.26-115.834-13.568c-8.865,5.822-20.23,5.822-29.095,0
	c-36.076-23.692-85.524-19.633-115.834,13.568c-88.064,96.465,41.711,198.625,102.184,238.421c17.109,11.259,39.286,11.259,56.395,0
	C344.683,345.503,474.458,243.342,386.394,146.878z"/>
<path style="fill:#FF5555;" d="M227.815,385.299c17.109,11.259,39.286,11.259,56.395,0c7.839-5.159,16.845-11.368,26.387-18.475
	c-24.36-4.557-48.515-13.235-71.525-27.439c-115.915-71.552-42.635-173.715-8.273-212.095
	c-34.674-16.63-77.751-10.446-105.169,19.587C37.568,243.342,167.342,345.503,227.815,385.299z"/>
<path d="M329.172,238.802v12.451c0,4.142,3.357,7.5,7.5,7.5s7.5-3.358,7.5-7.5v-12.451c0-4.142-3.357-7.5-7.5-7.5
	S329.172,234.659,329.172,238.802z"/>
<path d="M175.353,231.302c-4.143,0-7.5,3.358-7.5,7.5v12.451c0,4.142,3.357,7.5,7.5,7.5c4.143,0,7.5-3.358,7.5-7.5v-12.451
	C182.854,234.659,179.496,231.302,175.353,231.302z"/>
<path d="M274.334,245.329c-10.787,8.367-25.855,8.367-36.642,0c-3.272-2.539-7.985-1.944-10.522,1.33
	c-2.539,3.273-1.944,7.984,1.329,10.523c8.1,6.283,17.808,9.424,27.515,9.424c9.707,0,19.415-3.141,27.515-9.424
	c3.273-2.539,3.868-7.25,1.329-10.523C282.318,243.385,277.605,242.79,274.334,245.329z"/>
<path d="M510.562,220.455c2.986-9.136,1.258-19.121-4.622-26.709c-3.573-4.611-8.354-7.957-13.684-9.762
	c3.969-8.907,6.901-17.84,9.049-26.23c2.531-9.888-1.144-20.209-9.362-26.291c-8.295-6.14-18.912-6.626-27.703-1.27
	c-20.441,12.453-43.161,21.051-60.394,26.464c-3.509-5.029-7.476-9.977-11.913-14.837c-5.784-6.336-12.36-11.844-19.546-16.373
	c-3.505-2.209-8.136-1.157-10.344,2.347c-2.208,3.505-1.158,8.136,2.347,10.344c6.048,3.811,11.587,8.452,16.465,13.794
	c21.305,23.337,30.418,48.664,27.09,75.278c-3.504,28.017-20.469,57.955-50.424,88.982c-25.996,26.927-56.458,49.035-77.435,62.84
	c-14.625,9.624-33.523,9.624-48.148,0c-20.978-13.805-51.44-35.913-77.435-62.84c-29.955-31.027-46.92-60.965-50.424-88.982
	c-3.328-26.614,5.786-51.941,27.09-75.278c13.225-14.486,31.341-23.62,51.011-25.718c19.317-2.059,38.908,2.685,55.167,13.361
	c11.338,7.445,25.991,7.445,37.33,0c19.05-12.509,42.646-16.8,64.733-11.769c4.038,0.918,8.058-1.609,8.978-5.648
	c0.919-4.039-1.609-8.058-5.648-8.978c-26.046-5.929-53.857-0.88-76.298,13.857c-6.336,4.161-14.526,4.161-20.862,0
	c-19.151-12.576-42.23-18.168-64.992-15.74c-23.316,2.487-44.801,13.325-60.498,30.52c-4.436,4.859-8.403,9.806-11.911,14.835
	c-23.16-7.259-43.474-16.154-60.396-26.463c-8.792-5.355-19.407-4.869-27.703,1.27c-8.218,6.082-11.894,16.402-9.362,26.291
	c2.057,8.038,4.975,17.027,9.084,26.187c-4.695,1.577-8.98,4.379-12.442,8.27c-6.928,7.788-9.133,18.348-5.898,28.246
	c4.583,14.022,12.775,31.888,27.146,46.843c-2.63,1.955-16.293,11.307-4.489,29.113c14.23,21.467,45.065,50.535,94.393,50.532
	c12.115-0.001,25.404-1.794,39.913-5.938c22.581,20.909,46.576,38.259,65.266,50.56c9.816,6.46,21.069,9.69,32.32,9.69
	s22.503-3.23,32.32-9.69c18.691-12.3,42.685-29.65,65.266-50.559c14.512,4.145,27.795,5.938,39.913,5.937
	c49.322-0.002,79.604-29.448,94.393-50.532c11.251-16.04-4.221-29.297-4.114-29.409
	C495.461,254.762,504.468,239.101,510.562,220.455z M18.568,202.181c2.221-2.496,5.143-4.06,8.298-4.549
	c8.487,14.392,20.231,28.484,37.033,38.546c4.335,2.596,8.904-0.144,10.323-2.439c2.177-3.524,1.085-8.146-2.439-10.323
	c-28.248-17.451-40.896-47.363-46.533-69.383c-1.544-6.034,2.483-9.572,3.754-10.513c1.253-0.927,5.745-3.703,10.974-0.517
	c17.083,10.407,37.302,19.418,60.164,26.835c-9.845,18.795-13.526,38.617-10.947,59.235c2.295,18.348,9.418,36.121,19.511,52.915
	c-57.865,2.22-82.507-34.131-92.986-66.193C14.163,211.027,15.227,205.937,18.568,202.181z M79.208,323.693
	c-20.686-9.242-34.753-24.701-42.913-36.041c-1.903-2.646-1.003-5.189-0.527-6.159c0.471-0.96,1.913-3.206,5.13-3.321l-0.003-0.076
	c15.26,11.225,35.601,19.002,62.676,19.001c4.673,0,9.557-0.241,14.642-0.727c8.202,11.383,17.607,22.222,27.576,32.376
	C121.328,334.21,98.985,332.528,79.208,323.693z M472.045,143.004c5.229-3.187,9.722-0.411,10.975,0.517
	c1.271,0.94,5.299,4.479,3.754,10.513c-12.345,48.227-39.874,69.063-64.34,77.846c0.142-0.934,0.278-1.869,0.395-2.806
	c2.579-20.619-1.103-40.442-10.949-59.238C429.483,164.105,451.737,155.376,472.045,143.004z M475.729,287.652
	c-8.158,11.34-22.227,26.799-42.913,36.041c-19.777,8.835-42.118,10.516-66.58,5.052c23.119-23.546,43.215-50.778,52.27-79.93
	c32.977-8.798,53.711-28.955,66.742-51.168c3.445,0.563,6.612,2.419,8.834,5.286c2.872,3.706,3.681,8.393,2.221,12.86
	c-8.795,26.911-28.834,60.123-74.347,65.524c-4.113,0.488-7.052,4.218-6.564,8.332c0.453,3.813,3.691,6.617,7.438,6.617
	c0.295,0,0.593-0.017,0.893-0.053c18.069-2.144,33.948-8.204,47.403-18.064c0,0,4.659,2.38,5.129,3.34
	C476.733,282.463,477.633,285.005,475.729,287.652z"/>
<g>
</g>
<g>
</g>
<g>
</g>
<g>
</g>
<g>
</g>
<g>
</g>
<g>
</g>
<g>
</g>
<g>
</g>
<g>
</g>
<g>
</g>
<g>
</g>
<g>
</g>
<g>
</g>
<g>
</g>
</svg>
