<svg height="512pt" viewBox="0 0 512 512.00001" width="512pt" xmlns="http://www.w3.org/2000/svg"><path d="m241.578125 153.601562-53.84375 1.066407-44.09375-75.734375 1.425781-61.867188c56.554688 0 102.398438 45.847656 102.398438 102.398438.027344 11.632812-1.964844 23.183594-5.886719 34.136718" fill="#a4c2f7"/><path d="m443.734375 298.667969v8.53125l-8.277344 1.792969-12.546875 2.730468-84.308594 18.175782-8.617187 1.878906-4.777344 1.023437h-139.179687c-11.324219.011719-22.46875-2.804687-32.425782-8.191406l-30.976562-48.214844c-2.097656-6.59375-3.164062-13.472656-3.160156-20.394531v-102.398438h-59.730469c-28.277344 0-51.199219-22.925781-51.199219-51.203124.039063-28.257813 22.9375-51.15625 51.199219-51.199219h59.730469v-42.664063c11.316406 0 22.171875 4.492188 30.171875 12.496094 8 8 12.496093 18.851562 12.496093 30.167969.027344 3.25-.347656 6.488281-1.109374 9.644531 9.183593 4.566406 17.570312 10.589844 24.832031 17.832031 17.628906 17.59375 27.519531 41.484375 27.476562 66.390625v8.535156h93.867188c15.484375.011719 30.824219 2.9375 45.226562 8.617188 8.148438 3.21875 15.953125 7.25 23.296875 12.03125 5.214844 3.265625 10.179688 6.917969 14.847656 10.921875 33.367188 28.3125 52.769532 69.738281 53.164063 113.496094zm0 0" fill="#7fabfa"/><path d="m418.390625 296.960938-77.3125-31.316407c-2.332031 2.371094-4.417969 4.972657-6.230469 7.761719-2.628906 3.667969-4.777344 7.652344-6.398437 11.863281-3.015625 7.625-4.4375 15.785157-4.183594 23.976563.238281 5.988281 1.445313 11.898437 3.585937 17.496094l-14.59375 3.15625-8.617187 1.878906-4.777344 1.023437h-113.835937c-11.324219.011719-22.46875-2.804687-32.425782-8.191406l-30.976562-48.214844c-2.097656-6.59375-3.164062-13.472656-3.160156-20.394531v-102.398438h-59.730469c-28.277344 0-51.199219-22.925781-51.199219-51.203124.039063-28.257813 22.9375-51.15625 51.199219-51.199219h59.730469v-34.304688c10.902344 8.03125 17.332031 20.765625 17.324218 34.304688.027344 3.25-.347656 6.488281-1.109374 9.644531 9.183593 4.566406 17.570312 10.589844 24.832031 17.832031 17.628906 17.59375 27.519531 41.484375 27.476562 66.390625v8.535156h93.867188c24.363281.078126 48.171875 7.253907 68.523437 20.648438 11.273438 7.238281 21.472656 16.027344 30.292969 26.113281.085937.085938.171875.253907.339844.339844 23.414062 26.679687 36.648437 60.769531 37.378906 96.257813zm0 0" fill="#d4e1f4"/><path d="m358.398438 503.464844h-221.863282c-.011718-9.054688 3.578125-17.742188 9.984375-24.148438 6.402344-6.402344 15.089844-9.996094 24.148438-9.984375h153.597656c18.851563 0 34.132813 15.285157 34.132813 34.132813zm0 0" fill="#7fabfa"/><path d="m176.878906 294.527344-90.511718 90.503906c-10 9.996094-26.203126 9.996094-36.199219 0-9.996094-9.996094-9.996094-26.199219 0-36.195312l90.503906-90.515626zm0 0" fill="#d4e1f4"/><path d="m418.390625 296.960938v10.238281l-8.277344 1.792969-82.261719 17.75c-2.140624-5.597657-3.347656-11.507813-3.585937-17.496094-.253906-8.191406 1.167969-16.351563 4.183594-23.976563 1.621093-4.210937 3.769531-8.195312 6.398437-11.863281 1.8125-2.789062 3.898438-5.390625 6.230469-7.761719zm0 0" fill="#d4e1f4"/><path d="m492.886719 366.933594c-.023438 3.304687-.660157 6.574218-1.878907 9.640625-2.628906 6.386719-7.695312 11.453125-14.078124 14.082031-6.1875 2.503906-13.101563 2.503906-19.285157 0-1.039062-.425781-2.039062-.941406-2.988281-1.535156-2.015625-1.085938-3.855469-2.464844-5.460938-4.097656l-29.78125-29.78125c-2.128906 1.628906-4.382812 3.082031-6.742187 4.351562-2.332031 1.308594-4.757813 2.449219-7.253906 3.414062-.851563.339844-1.707031.597657-2.644531.9375-1.679688.574219-3.390626 1.058594-5.121094 1.453126-2.699219.597656-5.4375 1.027343-8.191406 1.277343-8.121094.703125-16.296876-.34375-23.976563-3.070312-15.257813-5.4375-27.84375-16.527344-35.160156-30.976563-.164063-.261718-.277344-.550781-.339844-.851562-.835937-1.625-1.546875-3.308594-2.132813-5.035156l82.261719-17.75 8.277344-1.792969v-10.238281l25.34375 10.238281 41.640625 41.644531c2.410156 2.421875 4.324219 5.289062 5.632812 8.445312 1.210938 3.074219 1.847657 6.34375 1.878907 9.644532zm0 0" fill="#7fabfa"/><path d="m503.210938 174.847656c-7.988282-6.070312-17.328126-10.109375-27.222657-11.777344-3.605469-.617187-7.261719-.933593-10.921875-.9375-4.269531-.007812-8.53125.417969-12.714844 1.28125-20.503906 4.164063-37.679687 18.089844-45.996093 37.289063l-16.636719-14.421875-13.996094-12.03125c2.121094-28.554688 23.03125-52.1875 51.113282-57.769531 4.15625-.859375 8.386718-1.289063 12.628906-1.28125 33.65625-.042969 61.558594 26.066406 63.746094 59.648437zm0 0" fill="#a4c2f7"/><path d="m213.332031 153.601562h93.867188v64c0 25.917969-21.011719 46.933594-46.933594 46.933594-25.917969 0-46.933594-21.015625-46.933594-46.933594zm0 0" fill="#a4c2f7"/><path d="m68.265625 102.398438c.027344 18.761718-7.691406 36.699218-21.332031 49.582031-22.574219-5.890625-38.34375-26.25-38.398438-49.582031-.042968-13.582032 5.367188-26.617188 15.015625-36.179688 6.429688-6.511719 14.511719-11.144531 23.382813-13.398438 13.640625 12.882813 21.359375 30.820313 21.332031 49.578126zm0 0" fill="#a4c2f7"/><path d="m99.15625 372.222656-10.75 10.753906c-6.382812 6.847657-15.996094 9.667969-25.066406 7.351563-9.070313-2.316406-16.152344-9.398437-18.46875-18.46875s.503906-18.683594 7.351562-25.066406l10.753906-10.75zm0 0" fill="#a4c2f7"/><path d="m492.886719 366.933594c-.023438 3.304687-.660157 6.574218-1.878907 9.640625-2.628906 6.386719-7.695312 11.453125-14.078124 14.082031-6.1875 2.503906-13.101563 2.503906-19.285157 0-1.039062-.425781-2.039062-.941406-2.988281-1.535156-2.015625-1.085938-3.855469-2.464844-5.460938-4.097656l-7.511718-7.507813 22.785156-22.699219v-.085937l13.398438-13.398438 7.507812 7.511719c2.410156 2.421875 4.324219 5.289062 5.632812 8.445312 1.210938 3.074219 1.847657 6.34375 1.878907 9.644532zm0 0" fill="#7fabfa"/><path d="m333.054688 503.464844h-196.519532c-.011718-9.054688 3.578125-17.742188 9.984375-24.148438 6.402344-6.402344 15.089844-9.996094 24.148438-9.984375h128.253906c18.851563 0 34.132813 15.285157 34.132813 34.132813zm0 0" fill="#a4c2f7"/><path d="m467.542969 366.933594c-.023438 3.304687-.660157 6.574218-1.878907 9.640625-1.308593 3.160156-3.222656 6.027343-5.632812 8.449219-1.597656 1.605468-3.40625 2.980468-5.375 4.097656-2.015625-1.085938-3.855469-2.464844-5.460938-4.097656l-29.78125-29.78125c-2.128906 1.628906-4.382812 3.082031-6.742187 4.351562-2.332031 1.308594-4.757813 2.449219-7.253906 3.414062-.851563.339844-1.707031.597657-2.644531.9375l-1.28125-1.277343-7.421876-7.425781c-2.128906 1.628906-4.382812 3.082031-6.742187 4.351562-2.332031 1.308594-4.757813 2.449219-7.253906 3.414062-2.53125.976563-5.125 1.773438-7.765625 2.390626-.085938 0-.253906.085937-.339844.085937-2.199219-.496094-4.363281-1.125-6.484375-1.878906-15.257813-5.4375-27.84375-16.527344-35.160156-30.976563-.164063-.261718-.277344-.550781-.339844-.851562-.835937-1.625-1.546875-3.308594-2.132813-5.035156-2.140624-5.597657-3.347656-11.507813-3.585937-17.496094-.253906-8.191406 1.167969-16.351563 4.183594-23.976563 1.621093-4.210937 3.769531-8.195312 6.398437-11.863281l83.542969 33.792969 20.820313 20.820312 10.410156 10.414063 2.902344 2.898437 7.507812 7.511719c1.640625 1.648438 3.046875 3.515625 4.183594 5.546875.0625.128906.148437.242187.253906.339844v.085937c.425781.851563.855469 1.621094 1.195312 2.472656 1.210938 3.074219 1.847657 6.34375 1.878907 9.644532zm0 0" fill="#d4e1f4"/><path d="m475.988281 163.070312c-3.605469-.617187-7.261719-.933593-10.921875-.9375-4.269531-.007812-8.53125.417969-12.714844 1.28125-4.152343-.867187-8.386718-1.292968-12.628906-1.28125-19.476562.003907-37.890625 8.898438-50.003906 24.148438l-13.996094-12.03125c2.121094-28.554688 23.03125-52.1875 51.113282-57.769531 23.960937 4.828125 43.050781 22.925781 49.152343 46.589843zm0 0" fill="#a4c2f7"/><path d="m467.542969 366.933594c-.023438 3.304687-.660157 6.574218-1.878907 9.640625-1.308593 3.160156-3.222656 6.027343-5.632812 8.449219-1.597656 1.605468-3.40625 2.980468-5.375 4.097656-2.015625-1.085938-3.855469-2.464844-5.460938-4.097656l-7.511718-7.507813 22.785156-22.699219c.425781.851563.855469 1.621094 1.195312 2.472656 1.210938 3.074219 1.847657 6.34375 1.878907 9.644532zm0 0" fill="#a4c2f7"/><path d="m119.464844 8.535156v42.664063h25.601562v-33.9375c-7.347656-5.632813-16.339844-8.699219-25.601562-8.726563zm0 0" fill="#fff"/><path d="m196.265625 469.332031h-25.597656c-9.058594-.011719-17.746094 3.582031-24.148438 9.984375-6.40625 6.40625-9.996093 15.09375-9.984375 24.148438h25.597656c-.011718-9.054688 3.582032-17.742188 9.984376-24.148438 6.40625-6.402344 15.09375-9.996094 24.148437-9.984375zm0 0" fill="#fff"/><path d="m25.421875 140.304688c1.941406 1.773437 4.019531 3.398437 6.210937 4.855468h.042969c2.210938 1.441406 4.527344 2.714844 6.929688 3.804688.1875.078125.359375.171875.535156.257812 2.3125 1.003906 4.695313 1.839844 7.128906 2.5.230469.058594.433594.171875.664063.230469l.050781-.050781c4.160156 1.101562 8.445313 1.671875 12.75 1.699218h25.597656c-4.304687-.03125-8.585937-.605468-12.746093-1.707031l-.050782.085938c-.230468-.0625-.4375-.171875-.667968-.230469-2.433594-.660156-4.8125-1.496094-7.125-2.503906-.179688-.082032-.351563-.175782-.539063-.253906-2.402344-1.09375-4.714844-2.363282-6.925781-3.804688-2.191406-1.460938-4.269532-3.082031-6.214844-4.855469l-.546875-.503906c-1.894531-1.765625-3.65625-3.667969-5.273437-5.691406-.109376-.136719-.203126-.28125-.304688-.417969-3.21875-4.148438-5.777344-8.769531-7.585938-13.699219-.128906-.363281-.273437-.722656-.394531-1.082031-.816406-2.378906-1.453125-4.8125-1.902343-7.289062-.085938-.425782-.136719-.851563-.195313-1.285157-2.9375-18.234375 4.230469-36.632812 18.730469-48.070312.519531-.417969 1.058594-.800781 1.59375-1.203125 1.160156-.851563 2.347656-1.636719 3.578125-2.390625.527343-.324219 1.039062-.664063 1.585937-.960938 1.738282-.984375 3.535156-1.859375 5.375-2.628906.324219-.136719.65625-.238281.980469-.359375 1.675781-.660156 3.386719-1.230469 5.121094-1.707031.238281-.066407.460937-.171875.699219-.230469h.042968c4.171875-1.074219 8.460938-1.617188 12.765625-1.613281h-25.597656c-4.308594.027343-8.59375.601562-12.757813 1.707031-.238281.058594-.460937.164062-.699218.230469-1.738282.476562-3.445313 1.046875-5.121094 1.707031-.324219.121094-.65625.222656-.980469.359375-1.84375.769531-3.636719 1.644531-5.375 2.628906-.546875.296875-1.058593.636719-1.589843.960938-1.226563.753906-2.414063 1.546875-3.574219 2.390625-.539063.402344-1.074219.785156-1.597657 1.203125-14.601562 11.355469-21.808593 29.804687-18.773437 48.050781.0625.4375.113281.855469.199219 1.289062.449218 2.472657 1.082031 4.910157 1.902344 7.289063.117187.355469.265624.714844.390624 1.082031 1.808594 4.929688 4.367188 9.550782 7.585938 13.695313.105469.136719.199219.28125.308594.417969 1.613281 2.027343 3.375 3.929687 5.273437 5.691406zm0 0" fill="#fff"/><path d="m75.765625 385.03125c-9.992187-9.996094-9.992187-26.199219 0-36.195312l72.457031-72.457032c-2.097656-6.589844-3.160156-13.464844-3.15625-20.378906v-102.398438h-25.601562v102.398438c-.003906 6.914062 1.0625 13.789062 3.160156 20.378906l-72.457031 72.457032c-9.113281 9.0625-10.070313 23.492187-2.230469 33.679687 7.839844 10.191406 22.03125 12.964844 33.128906 6.476563-1.933594-1.082032-3.714844-2.414063-5.300781-3.960938zm0 0" fill="#fff"/><path d="m110.933594 281.601562v-127.984374h17.066406v127.984374zm0 0" fill="#fff"/><g fill="#428dff"><path d="m119.464844 93.882812c0 4.714844-3.820313 8.535157-8.53125 8.535157-4.714844 0-8.535156-3.820313-8.535156-8.535157 0-4.710937 3.820312-8.53125 8.535156-8.53125 4.710937 0 8.53125 3.820313 8.53125 8.53125zm0 0"/><path d="m366.933594 315.734375c0 4.710937-3.820313 8.53125-8.535156 8.53125-4.710938 0-8.53125-3.820313-8.53125-8.53125 0-4.714844 3.820312-8.535156 8.53125-8.535156 4.714843 0 8.535156 3.820312 8.535156 8.535156zm0 0"/><path d="m401.066406 298.667969c0 4.710937-3.820312 8.53125-8.53125 8.53125-4.714844 0-8.535156-3.820313-8.535156-8.53125 0-4.714844 3.820312-8.535157 8.535156-8.535157 4.710938 0 8.53125 3.820313 8.53125 8.535157zm0 0"/><path d="m401.066406 332.800781c0 4.710938-3.820312 8.53125-8.53125 8.53125-4.714844 0-8.535156-3.820312-8.535156-8.53125 0-4.714843 3.820312-8.535156 8.535156-8.535156 4.710938 0 8.53125 3.820313 8.53125 8.535156zm0 0"/><path d="m51.199219 494.933594h-17.066407c-4.710937 0-8.53125 3.820312-8.53125 8.53125 0 4.714844 3.820313 8.535156 8.53125 8.535156h17.066407c4.714843 0 8.535156-3.820312 8.535156-8.535156 0-4.710938-3.820313-8.53125-8.535156-8.53125zm0 0"/><path d="m486.398438 494.933594h-25.597657c-4.714843 0-8.535156 3.820312-8.535156 8.53125 0 4.714844 3.820313 8.535156 8.535156 8.535156h25.597657c4.714843 0 8.535156-3.820312 8.535156-8.535156 0-4.710938-3.820313-8.53125-8.535156-8.53125zm0 0"/><path d="m116.222656 221.183594c.484375.246094 1.003906.417968 1.539063.511718.5625.09375 1.132812.152344 1.703125.171876 2.261718-.035157 4.425781-.917969 6.058594-2.476563.773437-.816406 1.382812-1.769531 1.792968-2.816406 1.289063-3.179688.585938-6.824219-1.792968-9.300781-.8125-.769532-1.769532-1.378907-2.8125-1.789063-1.027344-.4375-2.128907-.671875-3.246094-.683594-3.464844-.019531-6.597656 2.058594-7.929688 5.261719-1.328125 3.199219-.589844 6.886719 1.871094 9.328125l1.28125 1.023437c.476562.324219.992188.582032 1.535156.769532zm0 0"/><path d="m511.726562 174.320312c-2.359374-35.507812-30.167968-64.042968-65.605468-67.308593-35.433594-3.269531-67.992188 19.695312-76.808594 54.175781-19.0625-10.402344-40.398438-15.9375-62.113281-16.121094h-54.269531c2.023437-8.382812 3.054687-16.976562 3.070312-25.601562-.097656-60.082032-47.988281-109.175782-108.050781-110.769532-8.414063-5.675781-18.332031-8.7031245-28.484375-8.695312-4.710938 0-8.53125 3.820312-8.53125 8.535156v34.132813h-51.199219c-32.976563.035156-59.6953125 26.757812-59.734375 59.730469.0390625 32.976562 26.757812 59.699218 59.734375 59.734374h51.199219v17.066407c0 4.714843 3.820312 8.535156 8.53125 8.535156 4.714844 0 8.535156-3.820313 8.535156-8.535156v-17.722657c12.777344-1.757812 24.625-7.671874 33.707031-16.828124 3.328125-3.335938 3.324219-8.742188-.011719-12.070313-3.339843-3.328125-8.742187-3.324219-12.070312.011719-7.992188 8.007812-18.847656 12.496094-30.160156 12.476562h-55.636719c17.292969-25.816406 17.292969-59.515625 0-85.332031h55.636719c4.714844 0 8.535156-3.820313 8.535156-8.535156v-33.039063c15.054688 3.910156 25.570312 17.488282 25.601562 33.039063.027344 2.550781-.257812 5.097656-.855468 7.578125-.058594.257812 0 .511718 0 .777344-.082032.566406-.105469 1.136718-.078125 1.707031.027343.527343.09375 1.050781.207031 1.570312.140625.527344.328125 1.042969.5625 1.535157.21875.488281.480469.953124.785156 1.390624.320313.425782.675782.824219 1.066406 1.1875.414063.394532.863282.75 1.347657 1.058594.230469.136719.375.347656.617187.46875 8.359375 4.152344 15.996094 9.628906 22.613282 16.210938 16.042968 15.988281 25.019531 37.734375 24.933593 60.382812v72.535156c0 30.632813 24.832031 55.464844 55.464844 55.464844s55.46875-24.832031 55.46875-55.464844v-54.957031c64.554687 5.050781 119.464844 66.363281 119.464844 136.039063v8.535156c.011719 2.261719.914062 4.433594 2.507812 6.039062l28.09375 28.074219-24.117187 24.132813-16.210938-16.210938c-2.992187-2.972656-7.707031-3.3125-11.09375-.804687-1.832031 1.367187-3.753906 2.613281-5.75 3.730469-2.003906 1.109374-4.082031 2.074218-6.222656 2.890624-2.160156.84375-4.378906 1.523438-6.640625 2.042969-2.3125.539063-4.664063.914063-7.03125 1.125-6.894531.597657-13.839844-.300781-20.359375-2.636719-13.183594-4.703124-24.058594-14.289062-30.378906-26.777343-3.121094-6.164063-4.867188-12.929688-5.121094-19.832031-.5-13.90625 4.695312-27.417969 14.390625-37.402344 2.257813-2.160156 3.15625-5.382813 2.339844-8.402344-.816407-3.015625-3.21875-5.347656-6.261719-6.070312-3.042969-.722657-6.238281.277343-8.324219 2.601562-12.921875 13.300781-19.851562 31.296875-19.191406 49.828125.160156 4.976563.90625 9.917969 2.226563 14.71875h-132.027344c-7.683594.003906-15.296875-1.492187-22.410156-4.402344l21.335937-21.332031c3.230469-3.347656 3.1875-8.671875-.105469-11.964844-3.292968-3.289062-8.613281-3.335937-11.960937-.101562l-73.753907 73.746094-24.109374-24.167969 73.753906-73.746094c2.21875-2.140625 3.109375-5.316406 2.328125-8.296875-.78125-2.984375-3.109375-5.316406-6.09375-6.09375-2.984375-.78125-6.15625.105469-8.300781 2.324219l-8.710938 8.714843v-11.480468c0-4.710938-3.820312-8.53125-8.535156-8.53125-4.710938 0-8.53125 3.820312-8.53125 8.53125v28.546875l-64.734375 64.734375c-8.78125 8.589844-12.273438 21.238281-9.136719 33.113281 3.136719 11.878906 12.414062 21.15625 24.296875 24.292969 11.878906 3.132812 24.523437-.359375 33.113281-9.144532l56.320313-56.320312c10.875 5.6875 22.964843 8.652344 35.234375 8.644531h42.664062l40.40625 17.066407h-85.632812c-6.292969-.003907-11.660156 4.566406-12.652344 10.785156-.992188 6.214844 2.683594 12.230468 8.667969 14.183594l83.535156 26.234374h-78.261719c-5.640625 0-10.613281 3.691407-12.25 9.089844-1.632812 5.398438.460938 11.230469 5.152344 14.359375.246094.160157.496094.304688.75.441407l51.703125 27.308593h-59.441406c-20.269531.023438-37.730469 14.28125-41.816407 34.132813h-43.519531c-4.710937 0-8.53125 3.820312-8.53125 8.53125 0 4.714844 3.820313 8.535156 8.53125 8.535156h341.335938c4.710937 0 8.53125-3.820312 8.53125-8.535156 0-4.710938-3.820313-8.53125-8.53125-8.53125h-60.589844c-4.082031-19.851563-21.542969-34.109375-41.8125-34.132813h-57.617187l-64.628907-34.132812h88.804688c6.292969 0 11.65625-4.570313 12.648437-10.789063.988282-6.214844-2.6875-12.226562-8.671875-14.179687l-83.523437-26.234375h78.855468c5.9375.003906 11.09375-4.078125 12.460938-9.855469 1.367188-5.96875-1.652344-12.078125-7.230469-14.617187l-22.851562-9.660157h52.695312.195313c8.53125 14.125 21.691406 24.855469 37.238281 30.378907 8.816406 3.148437 18.210937 4.355468 27.539063 3.535156 6.269531-.566406 12.433593-2 18.3125-4.269532 2.863281-1.109374 5.652343-2.414062 8.34375-3.898437.488281-.28125.988281-.5625 1.476562-.851563l24.859375 24.855469c6.390625 6.398438 15.066406 9.992188 24.113281 9.984375 13.789063-.015625 26.214844-8.328125 31.492188-21.070312 5.277344-12.742188 2.371094-27.40625-7.367188-37.167969l-39.144531-39.144531v-5.015625c-.296875-36.035157-12.988281-70.867188-35.941406-98.648438 9.574219-18.039062 28.320312-29.328125 48.742187-29.351562 11.625-.039063 22.957032 3.636719 32.339844 10.496093 2.496094 2.3125 6.128906 2.921876 9.246094 1.550782 3.113281-1.371094 5.113281-4.464844 5.089844-7.867188 0-.1875-.117188-.347656-.125-.539062zm-494.660156-71.921874c.003906-17.664063 10.921875-33.488282 27.433594-39.765626 9.839844 10.90625 15.269531 25.082032 15.234375 39.765626.042969 14.675781-5.375 28.839843-15.199219 39.742187-16.496094-6.289063-27.414062-22.085937-27.46875-39.742187zm41.199219 274.542968c-6.664063-6.664062-6.664063-17.464844 0-24.128906l4.691406-4.703125 24.144531 24.140625-4.695312 4.691406c-6.753906 6.457032-17.386719 6.457032-24.140625 0zm290.140625 117.992188h-201.878906c3.628906-10.21875 13.292968-17.054688 24.140625-17.066406h153.597656c10.847656.011718 20.511719 6.847656 24.140625 17.066406zm134.683594-121.566406c-.855469 2.113281-2.125 4.03125-3.738282 5.640624-6.664062 6.65625-17.460937 6.65625-24.125 0l-1.476562-1.476562 24.117188-24.113281 1.476562 1.476562c1.613281 1.601563 2.886719 3.511719 3.738281 5.621094 1.664063 4.121094 1.664063 8.730469 0 12.851563zm-291.199219-300.714844c-6.425781-6.359375-13.65625-11.851563-21.503906-16.332032.152343-1.707031.28125-3.371093.28125-5.121093-.003907-8.160157-1.96875-16.199219-5.734375-23.441407 43.144531 9.398438 73.933594 47.554688 74 91.707032-.003906 8.664062-1.222656 17.28125-3.625 25.601562h-13.441406c.074218-27.171875-10.71875-53.246094-29.976563-72.414062zm106.777344 144.949218c0 21.207032-17.195313 38.398438-38.402344 38.398438s-38.398437-17.191406-38.398437-38.398438v-55.46875h76.800781zm105.539062-30.722656c-6.027343-5.921875-12.53125-11.34375-19.4375-16.210937 3.851563-24.664063 23.71875-43.703125 48.519531-46.503907 24.804688-2.804687 48.417969 11.324219 57.675782 34.503907-8.242188-3.28125-17.027344-5-25.898438-5.066407-24.628906.015626-47.554687 12.554688-60.859375 33.277344zm0 0"/></g></svg>