<svg xmlns="http://www.w3.org/2000/svg" height="511pt" version="1.1" viewBox="0 -11 511.99958 511" width="511pt">
<g id="surface1">
<path d="M 243.699219 8 L 273.660156 8 L 273.660156 212.816406 L 243.699219 212.816406 Z M 243.699219 8 " style=" stroke:none;fill-rule:nonzero;fill:rgb(93.72549%,92.941176%,93.333333%);fill-opacity:1;" />
<path d="M 158.558594 212.816406 C 156.117188 212.816406 153.640625 212.1875 151.378906 210.863281 L 93.625 177.027344 C 90.890625 175.425781 87.636719 175.085938 84.636719 176.074219 L 42.769531 195.066406 C 35.613281 198.3125 27.183594 195.144531 23.9375 187.988281 C 20.691406 180.832031 23.859375 172.398438 31.015625 169.152344 L 73.433594 149.910156 C 73.742188 149.769531 74.050781 149.640625 74.367188 149.527344 C 85.5 145.398438 97.761719 146.472656 108.007812 152.476562 L 165.765625 186.3125 C 172.542969 190.28125 174.820312 199 170.847656 205.777344 C 168.199219 210.296875 163.445312 212.816406 158.558594 212.816406 Z M 158.558594 212.816406 " style=" stroke:none;fill-rule:nonzero;fill:rgb(56.470588%,37.254902%,65.882353%);fill-opacity:1;" />
<path d="M 21.714844 291.042969 C 18.160156 291.042969 14.601562 289.722656 11.84375 287.058594 C 6.183594 281.605469 6.019531 272.597656 11.472656 266.941406 L 40.585938 236.742188 C 48.910156 228.1875 60.449219 223.890625 72.277344 224.90625 L 138.964844 230.636719 C 146.796875 231.3125 152.597656 238.203125 151.921875 246.03125 C 151.25 253.859375 144.355469 259.65625 136.527344 258.988281 L 69.839844 253.253906 C 66.550781 252.976562 63.335938 254.167969 61.027344 256.539062 L 31.960938 286.691406 C 29.167969 289.585938 25.445312 291.042969 21.714844 291.042969 Z M 21.714844 291.042969 " style=" stroke:none;fill-rule:nonzero;fill:rgb(56.470588%,37.254902%,65.882353%);fill-opacity:1;" />
<path d="M 47.289062 415.179688 C 45.765625 415.179688 44.214844 414.933594 42.691406 414.410156 C 35.253906 411.871094 31.285156 403.785156 33.824219 396.347656 L 48.667969 352.867188 C 51.957031 341.628906 59.972656 332.507812 70.71875 327.8125 L 132.050781 300.996094 C 139.25 297.847656 147.636719 301.132812 150.785156 308.332031 C 153.933594 315.53125 150.648438 323.921875 143.449219 327.070312 L 82.117188 353.882812 C 79.089844 355.207031 76.839844 357.792969 75.945312 360.976562 C 75.875 361.230469 75.796875 361.480469 75.710938 361.730469 L 60.753906 405.542969 C 58.734375 411.457031 53.207031 415.179688 47.289062 415.179688 Z M 47.289062 415.179688 " style=" stroke:none;fill-rule:nonzero;fill:rgb(56.470588%,37.254902%,65.882353%);fill-opacity:1;" />
<path d="M 122.007812 482.972656 C 121.828125 482.972656 121.652344 482.96875 121.46875 482.964844 C 113.617188 482.671875 107.488281 476.070312 107.78125 468.21875 L 109.484375 422.371094 C 109.847656 410.59375 115.457031 399.636719 124.875 392.402344 L 177.957031 351.625 C 184.191406 346.839844 193.121094 348.011719 197.90625 354.242188 C 202.695312 360.472656 201.523438 369.40625 195.292969 374.191406 L 142.207031 414.96875 C 139.585938 416.980469 138.023438 420.03125 137.921875 423.339844 L 136.214844 469.273438 C 135.929688 476.945312 129.621094 482.972656 122.007812 482.972656 Z M 122.007812 482.972656 " style=" stroke:none;fill-rule:nonzero;fill:rgb(56.470588%,37.254902%,65.882353%);fill-opacity:1;" />
<path d="M 353.4375 212.816406 C 355.882812 212.816406 358.355469 212.1875 360.617188 210.863281 L 418.371094 177.027344 C 421.109375 175.425781 424.363281 175.085938 427.359375 176.074219 L 469.226562 195.066406 C 476.382812 198.3125 484.8125 195.144531 488.0625 187.988281 C 491.308594 180.832031 488.136719 172.398438 480.984375 169.152344 L 438.5625 149.910156 C 438.257812 149.769531 437.945312 149.640625 437.632812 149.527344 C 426.496094 145.398438 414.234375 146.472656 403.988281 152.476562 L 346.234375 186.3125 C 339.453125 190.28125 337.179688 199 341.148438 205.777344 C 343.796875 210.296875 348.554688 212.816406 353.4375 212.816406 Z M 353.4375 212.816406 " style=" stroke:none;fill-rule:nonzero;fill:rgb(56.470588%,37.254902%,65.882353%);fill-opacity:1;" />
<path d="M 490.28125 291.042969 C 493.835938 291.042969 497.394531 289.722656 500.15625 287.058594 C 505.8125 281.605469 505.976562 272.597656 500.523438 266.941406 L 471.414062 236.742188 C 463.085938 228.1875 451.550781 223.890625 439.722656 224.90625 L 373.03125 230.636719 C 365.203125 231.3125 359.402344 238.203125 360.074219 246.03125 C 360.75 253.859375 367.640625 259.65625 375.46875 258.988281 L 442.160156 253.253906 C 445.449219 252.976562 448.664062 254.167969 450.96875 256.539062 L 480.039062 286.691406 C 482.832031 289.585938 486.554688 291.042969 490.28125 291.042969 Z M 490.28125 291.042969 " style=" stroke:none;fill-rule:nonzero;fill:rgb(56.470588%,37.254902%,65.882353%);fill-opacity:1;" />
<path d="M 464.707031 415.179688 C 466.234375 415.179688 467.78125 414.933594 469.304688 414.410156 C 476.742188 411.871094 480.710938 403.785156 478.171875 396.347656 L 463.328125 352.867188 C 460.042969 341.628906 452.027344 332.507812 441.277344 327.8125 L 379.949219 300.996094 C 372.75 297.847656 364.359375 301.132812 361.214844 308.332031 C 358.066406 315.53125 361.351562 323.921875 368.550781 327.070312 L 429.878906 353.882812 C 432.910156 355.207031 435.15625 357.792969 436.050781 360.976562 C 436.121094 361.230469 436.199219 361.480469 436.285156 361.730469 L 451.242188 405.542969 C 453.261719 411.457031 458.789062 415.179688 464.707031 415.179688 Z M 464.707031 415.179688 " style=" stroke:none;fill-rule:nonzero;fill:rgb(56.470588%,37.254902%,65.882353%);fill-opacity:1;" />
<path d="M 389.988281 482.972656 C 390.167969 482.972656 390.347656 482.96875 390.527344 482.964844 C 398.378906 482.671875 404.507812 476.070312 404.21875 468.21875 L 402.515625 422.371094 C 402.152344 410.59375 396.542969 399.636719 387.125 392.402344 L 334.039062 351.625 C 327.808594 346.839844 318.878906 348.011719 314.089844 354.242188 C 309.304688 360.472656 310.476562 369.40625 316.707031 374.191406 L 369.789062 414.96875 C 372.414062 416.980469 373.972656 420.03125 374.078125 423.339844 L 375.78125 469.273438 C 376.066406 476.945312 382.375 482.972656 389.988281 482.972656 Z M 389.988281 482.972656 " style=" stroke:none;fill-rule:nonzero;fill:rgb(56.470588%,37.254902%,65.882353%);fill-opacity:1;" />
<path d="M 243.699219 120.175781 L 273.660156 120.175781 L 273.660156 212.816406 L 243.699219 212.816406 Z M 243.699219 120.175781 " style=" stroke:none;fill-rule:nonzero;fill:rgb(83.137255%,83.137255%,83.137255%);fill-opacity:1;" />
<path d="M 275.445312 150.175781 L 241.914062 150.175781 C 168.839844 150.175781 109.597656 209.417969 109.597656 282.492188 C 109.597656 355.570312 168.839844 414.8125 241.914062 414.8125 L 275.445312 414.8125 C 348.519531 414.8125 407.761719 355.570312 407.761719 282.492188 C 407.761719 209.417969 348.519531 150.175781 275.445312 150.175781 Z M 275.445312 150.175781 " style=" stroke:none;fill-rule:nonzero;fill:rgb(65.098039%,42.745098%,76.078431%);fill-opacity:1;" />
<path d="M 139.597656 282.492188 C 139.597656 209.417969 198.839844 150.175781 271.917969 150.175781 L 241.914062 150.175781 C 168.839844 150.175781 109.597656 209.414062 109.597656 282.492188 C 109.597656 355.570312 168.839844 414.808594 241.914062 414.808594 L 271.917969 414.808594 C 198.839844 414.8125 139.597656 355.570312 139.597656 282.492188 Z M 139.597656 282.492188 " style=" stroke:none;fill-rule:nonzero;fill:rgb(56.470588%,37.254902%,65.882353%);fill-opacity:1;" />
<path d="M 201.667969 292.804688 L 179.011719 285.136719 C 175.085938 283.808594 170.828125 285.910156 169.5 289.835938 C 168.171875 293.757812 170.277344 298.015625 174.199219 299.34375 L 179.804688 301.238281 L 179.804688 312.34375 C 179.804688 316.484375 183.160156 319.84375 187.304688 319.84375 C 191.445312 319.84375 194.804688 316.484375 194.804688 312.34375 L 194.804688 306.316406 L 196.859375 307.015625 C 200.734375 308.324219 205.058594 306.1875 206.367188 302.316406 C 207.699219 298.390625 205.59375 294.132812 201.667969 292.804688 Z M 201.667969 292.804688 " style=" stroke:none;fill-rule:nonzero;fill:rgb(0%,0%,0%);fill-opacity:1;" />
<path d="M 332.988281 285.132812 L 310.328125 292.804688 C 306.40625 294.132812 304.300781 298.390625 305.628906 302.3125 C 306.9375 306.171875 311.285156 308.316406 315.140625 307.011719 L 317.195312 306.316406 L 317.195312 312.339844 C 317.195312 316.484375 320.554688 319.839844 324.695312 319.839844 C 328.839844 319.839844 332.195312 316.484375 332.195312 312.339844 L 332.195312 301.238281 L 337.800781 299.34375 C 341.722656 298.015625 343.828125 293.757812 342.5 289.835938 C 341.171875 285.910156 336.910156 283.804688 332.988281 285.132812 Z M 332.988281 285.132812 " style=" stroke:none;fill-rule:nonzero;fill:rgb(0%,0%,0%);fill-opacity:1;" />
<path d="M 277.753906 304 C 274.632812 301.273438 269.898438 301.59375 267.171875 304.710938 C 264.460938 307.808594 260.390625 309.585938 256 309.585938 C 251.609375 309.585938 247.535156 307.808594 244.828125 304.710938 C 242.101562 301.589844 237.363281 301.273438 234.242188 304 C 231.125 306.726562 230.804688 311.464844 233.53125 314.582031 C 239.089844 320.941406 247.28125 324.589844 256 324.589844 C 264.71875 324.589844 272.90625 320.941406 278.464844 314.582031 C 281.191406 311.464844 280.871094 306.726562 277.753906 304 Z M 277.753906 304 " style=" stroke:none;fill-rule:nonzero;fill:rgb(0%,0%,0%);fill-opacity:1;" />
<path d="M 21.714844 298.542969 C 27.671875 298.542969 33.226562 296.183594 37.359375 291.894531 C 37.359375 291.894531 66.398438 261.777344 66.40625 261.769531 C 67.121094 261.023438 68.167969 260.636719 69.199219 260.726562 L 103.371094 263.667969 C 102.539062 269.828125 102.097656 276.109375 102.097656 282.492188 C 102.097656 290.191406 102.734375 297.742188 103.9375 305.101562 L 67.714844 320.941406 C 55 326.5 45.460938 337.300781 41.519531 350.597656 L 26.726562 393.925781 C 22.855469 405.261719 28.929688 417.636719 40.265625 421.507812 C 51.480469 425.335938 64.023438 419.175781 67.851562 407.964844 C 67.851562 407.964844 82.800781 364.179688 82.800781 364.175781 C 83.289062 362.75 83.609375 361.417969 85.125 360.757812 L 117.648438 346.535156 C 122.796875 356.476562 129.097656 365.730469 136.378906 374.105469 L 120.304688 386.453125 C 109.097656 395.0625 102.421875 408.070312 101.988281 422.09375 L 100.285156 467.941406 C 99.839844 479.910156 109.21875 490.015625 121.164062 490.457031 C 132.792969 490.890625 143.28125 481.15625 143.710938 469.550781 L 145.421875 423.566406 C 145.453125 422.503906 145.933594 421.5625 146.777344 420.917969 L 170.53125 402.667969 C 191.441406 415.136719 215.855469 422.3125 241.914062 422.3125 L 275.445312 422.3125 C 300.246094 422.3125 323.554688 415.8125 343.769531 404.441406 L 365.21875 420.917969 C 366.0625 421.5625 366.546875 422.507812 366.582031 423.617188 L 368.285156 469.554688 C 368.722656 481.285156 378.253906 490.476562 389.992188 490.476562 C 402.128906 490.472656 412.164062 480.074219 411.710938 467.941406 L 410.011719 422.140625 C 409.578125 408.074219 402.902344 395.066406 391.691406 386.453125 L 378.804688 376.554688 C 386.53125 368.070312 393.230469 358.628906 398.703125 348.4375 L 426.878906 360.757812 C 427.851562 361.183594 428.542969 361.980469 428.839844 363.039062 C 428.949219 363.410156 444.140625 407.941406 444.148438 407.964844 C 447.960938 419.132812 460.578125 425.316406 471.730469 421.507812 C 483.070312 417.636719 489.144531 405.261719 485.273438 393.925781 L 470.480469 350.597656 C 466.539062 337.300781 457 326.496094 444.285156 320.9375 L 413.058594 307.285156 C 414.507812 299.238281 415.261719 290.953125 415.261719 282.492188 C 415.261719 275.949219 414.800781 269.515625 413.925781 263.210938 L 442.792969 260.730469 C 443.851562 260.640625 444.863281 261.019531 445.570312 261.746094 C 445.570312 261.746094 474.625 291.878906 474.640625 291.894531 C 482.859375 300.421875 496.84375 300.671875 505.363281 292.457031 C 513.988281 284.144531 514.238281 270.359375 505.925781 261.734375 C 505.925781 261.734375 476.796875 231.519531 476.789062 231.515625 C 467.09375 221.457031 452.980469 216.238281 439.078125 217.429688 L 400.847656 220.71875 C 397.679688 214.308594 394.035156 208.175781 389.957031 202.367188 L 422.164062 183.496094 C 422.941406 183.042969 423.863281 182.90625 424.730469 183.113281 C 424.730469 183.113281 466.117188 201.890625 466.128906 201.898438 C 476.910156 206.789062 490 201.863281 494.890625 191.085938 C 499.839844 180.175781 494.992188 167.273438 484.082031 162.320312 L 441.652344 143.074219 C 428.648438 137.1875 412.339844 138.890625 400.199219 146.003906 L 358.757812 170.28125 C 336.902344 154.011719 310.15625 143.976562 281.160156 142.800781 L 281.160156 8 C 281.160156 3.859375 277.800781 0.5 273.660156 0.5 L 243.699219 0.5 C 239.554688 0.5 236.195312 3.859375 236.195312 8 L 236.195312 43.324219 C 236.195312 47.464844 239.554688 50.824219 243.699219 50.824219 C 247.839844 50.824219 251.199219 47.464844 251.199219 43.324219 L 251.199219 15.5 L 266.160156 15.5 L 266.160156 142.675781 L 251.199219 142.675781 L 251.199219 73.203125 C 251.199219 69.0625 247.839844 65.703125 243.699219 65.703125 C 239.554688 65.703125 236.195312 69.0625 236.195312 73.203125 L 236.195312 142.800781 C 206.164062 144.015625 178.539062 154.746094 156.269531 172.054688 C 156.269531 172.054688 111.804688 146.003906 111.800781 146.003906 C 99.730469 138.933594 84.875 137.628906 71.761719 142.488281 C 71.285156 142.667969 27.914062 162.320312 27.914062 162.320312 C 17.003906 167.269531 12.15625 180.175781 17.105469 191.085938 C 21.96875 201.808594 35.160156 206.753906 45.867188 201.894531 L 87.265625 183.113281 C 88.132812 182.90625 89.058594 183.042969 89.832031 183.496094 L 125.859375 204.601562 C 122.304688 209.878906 119.109375 215.410156 116.289062 221.160156 L 72.917969 217.429688 C 71.574219 217.316406 70.210938 217.257812 68.867188 217.257812 C 56.105469 217.257812 44.152344 222.320312 35.1875 231.535156 L 6.074219 261.734375 C -2.238281 270.359375 -1.988281 284.140625 6.636719 292.457031 C 10.707031 296.382812 16.0625 298.542969 21.714844 298.542969 Z M 79.117188 347.011719 C 74.015625 349.242188 70.230469 353.589844 68.726562 358.945312 C 68.695312 359.058594 68.660156 359.171875 68.613281 359.308594 C 68.613281 359.308594 53.6875 403.03125 53.65625 403.121094 C 52.480469 406.566406 48.554688 408.488281 45.117188 407.3125 C 41.605469 406.113281 39.722656 402.285156 40.921875 398.773438 L 55.769531 355.292969 C 55.804688 355.1875 55.839844 355.082031 55.867188 354.972656 C 58.527344 345.878906 65.035156 338.480469 73.726562 334.683594 L 107.207031 320.042969 C 108.414062 324.386719 109.835938 328.667969 111.457031 332.871094 Z M 456.128906 354.972656 C 456.160156 355.082031 456.195312 355.1875 456.230469 355.292969 L 471.078125 398.773438 C 472.273438 402.28125 470.394531 406.113281 466.882812 407.3125 C 463.410156 408.496094 459.53125 406.59375 458.34375 403.121094 L 443.386719 359.308594 C 443.34375 359.179688 443.300781 359.046875 443.273438 358.953125 C 441.773438 353.59375 437.984375 349.242188 432.886719 347.015625 L 405.109375 334.867188 C 406.796875 330.695312 408.28125 326.441406 409.554688 322.125 L 438.277344 334.683594 C 446.964844 338.484375 453.472656 345.878906 456.128906 354.972656 Z M 440.363281 232.378906 C 449.878906 231.558594 459.355469 235.105469 466.011719 241.949219 L 495.125 272.148438 C 497.699219 274.816406 497.621094 279.085938 494.949219 281.660156 C 492.304688 284.207031 487.984375 284.128906 485.4375 281.484375 C 485.4375 281.484375 456.359375 251.324219 456.34375 251.308594 C 452.53125 247.355469 446.980469 245.320312 441.515625 245.785156 L 411.066406 248.402344 C 409.949219 243.953125 408.613281 239.558594 407.066406 235.242188 Z M 137.640625 409.019531 C 133.226562 412.410156 130.597656 417.542969 130.429688 423.058594 L 128.722656 468.996094 C 128.585938 472.628906 125.640625 475.472656 122.007812 475.472656 L 121.75 475.46875 C 118.042969 475.332031 115.140625 472.203125 115.277344 468.496094 L 116.980469 422.601562 C 117.277344 413.046875 121.820312 404.207031 129.445312 398.351562 L 146.835938 384.992188 C 150.203125 388.121094 153.726562 391.078125 157.378906 393.859375 Z M 241.917969 407.3125 C 173.089844 407.3125 117.097656 351.320312 117.097656 282.492188 C 117.097656 273.058594 118.175781 263.625 120.28125 254.425781 C 120.320312 254.261719 120.363281 254.101562 120.398438 253.9375 C 133.347656 198.828125 182.914062 157.675781 241.914062 157.675781 L 275.445312 157.675781 C 335.613281 157.675781 385.976562 200.476562 397.6875 257.230469 C 397.699219 257.285156 397.714844 257.339844 397.726562 257.394531 C 399.386719 265.507812 400.261719 273.898438 400.261719 282.496094 C 400.261719 351.320312 344.269531 407.3125 275.445312 407.3125 Z M 395.019531 422.652344 L 396.722656 468.496094 C 396.859375 472.203125 393.957031 475.332031 390.226562 475.46875 L 389.988281 475.472656 C 386.359375 475.472656 383.410156 472.628906 383.277344 468.996094 L 381.574219 423.105469 C 381.402344 417.542969 378.773438 412.410156 374.359375 409.019531 L 357.253906 395.882812 C 360.992188 393.175781 364.605469 390.285156 368.066406 387.21875 L 382.554688 398.347656 C 390.179688 404.207031 394.722656 413.050781 395.019531 422.652344 Z M 407.78125 158.945312 C 415.738281 154.285156 426.878906 152.839844 435.464844 156.738281 L 477.882812 175.984375 C 481.261719 177.515625 482.761719 181.511719 481.234375 184.886719 C 479.726562 188.207031 475.636719 189.738281 472.328125 188.234375 L 430.460938 169.242188 C 425.527344 167.011719 419.148438 167.882812 414.582031 170.554688 L 380.664062 190.425781 C 377.621094 186.957031 374.40625 183.632812 371.039062 180.472656 C 371.039062 180.472656 407.777344 158.949219 407.78125 158.945312 Z M 88.082031 168.015625 C 85.90625 168.015625 83.542969 168.335938 81.539062 169.242188 C 81.539062 169.242188 39.683594 188.230469 39.671875 188.234375 C 36.386719 189.726562 32.296875 188.257812 30.765625 184.890625 C 29.234375 181.511719 30.734375 177.515625 34.113281 175.984375 L 76.527344 156.742188 C 85.160156 152.859375 96.21875 154.257812 104.21875 158.945312 L 144.289062 182.421875 C 141 185.632812 137.863281 189.003906 134.90625 192.519531 L 97.417969 170.554688 C 94.582031 168.894531 91.355469 168.015625 88.082031 168.015625 Z M 16.875 272.144531 C 16.875 272.144531 45.957031 241.980469 45.964844 241.972656 C 52.554688 235.136719 62.179688 231.5625 71.636719 232.375 L 110.140625 235.6875 C 109.15625 238.457031 106.578125 247.253906 106.183594 248.851562 L 70.472656 245.78125 C 65.054688 245.320312 59.359375 247.3125 55.628906 251.332031 C 55.628906 251.332031 26.574219 281.46875 26.5625 281.484375 C 24.078125 284.058594 19.726562 284.242188 17.046875 281.65625 C 14.378906 279.085938 14.300781 274.816406 16.875 272.144531 Z M 16.875 272.144531 " style=" stroke:none;fill-rule:nonzero;fill:rgb(0%,0%,0%);fill-opacity:1;" />
</g>
</svg>