<svg height="512pt" viewBox="0 0 512 512.001" width="512pt" xmlns="http://www.w3.org/2000/svg"><path d="m512 256c0 141.386719-114.613281 256-256 256-141.382812 0-256-114.613281-256-256s114.617188-256 256-256c141.386719 0 256 114.613281 256 256zm0 0" fill="#40deed"/><path d="m509.769531 289.851562-253.914062-253.914062-29.117188 287.824219-52.027343 41.308593 64.484374 64.488282c-16.359374 17.683594-31.875 34.507812-31.875 34.507812l47.925782 47.925782c.25 0 .5.007812.753906.007812 129.910156 0 237.203125-96.765625 253.769531-222.148438zm0 0" fill="#00c7d1"/><path d="m301.492188 365.070312h-91.277344v-269.132812l45.640625-60 45.636719 60zm0 0" fill="#fff"/><path d="m301.492188 95.9375-45.636719-60-.546875 329.132812h46.183594zm0 0" fill="#e9edf5"/><path d="m207.320312 348.570312h94.171876v115.492188h-94.171876zm0 0" fill="#4141ce"/><path d="m255.308594 348.570312h46.183594v115.492188h-46.183594zm0 0" fill="#3b3bcc"/><path d="m174.710938 296.074219h159.386718v68.996093h-159.386718zm0 0" fill="#5a54e0"/><path d="m255.308594 296.074219h78.792968v68.996093h-78.792968zm0 0" fill="#3838ba"/></svg>