<svg height="512pt" viewBox="-26 0 512 512.00073" width="512pt" xmlns="http://www.w3.org/2000/svg"><path d="m272.4375 254.261719h-84.878906c-25.96875 24.425781-37.558594 65.1875-37.558594 101.738281 0 66.269531 35.820312 146 80 146s80-79.730469 80-146c0-36.703125-11.667969-77.386719-37.5625-101.738281zm0 0" fill="#6d6d6d"/><path d="m266.007812 184.003906h-72.019531c-14.570312 7.296875-23.988281 18.917969-23.988281 32 0 6.46875 2.308594 14.289063 6.398438 22.128906 10.382812 19.867188 30.929687 37.871094 53.601562 37.871094 22.660156 0 43.199219-17.976562 53.597656-37.871094 4.089844-7.839843 6.402344-15.660156 6.402344-22.128906 0-13.082031-9.421875-24.703125-23.992188-32zm0 0" fill="#e09532"/><path d="m290 136.003906c0 33.199219-26.917969 60-60 60-33.074219 0-60-26.792968-60-60 0-33.300781 26.957031-80 60-80s60 46.703125 60 80zm0 0" fill="#6d6d6d"/><path d="m280 336c0 5.523438-4.476562 10-10 10s-10-4.476562-10-10c0-5.519531 4.476562-10 10-10s10 4.480469 10 10zm0 0"/><path d="m270 366.054688c-5.484375-.652344-10.464844 3.242187-11.128906 8.726562-2.742188 22.683594-10.488282 48.804688-18.414063 62.101562-2.824219 4.746094-1.269531 10.882813 3.472657 13.710938 4.746093 2.828125 10.882812 1.269531 13.710937-3.472656 9.476563-15.902344 17.949219-44.007813 21.085937-69.9375.664063-5.484375-3.242187-10.464844-8.726562-11.128906zm0 0"/><path d="m456.363281 454.285156-77.785156-64.171875-39.089844-117.273437c-1.363281-4.082032-5.183593-6.835938-9.488281-6.835938h-34.863281c-2.9375-4.441406-6.082031-8.570312-9.425781-12.359375 1.699218-2.355469 3.28125-4.785156 4.726562-7.25l56.859375-18.949219 35.628906 35.628907c1.878907 1.875 4.421875 2.929687 7.074219 2.929687h59.996094c5.523437 0 10-4.480468 10-10 0-5.523437-4.476563-10-10-10h-55.855469l-37.070313-37.074218c-2.679687-2.675782-6.640624-3.609376-10.234374-2.414063l-47.324219 15.773437c.167969-1.125.292969-2.234374.375-3.324218l55.773437-92.960938h34.339844c5.519531 0 10-4.480468 10-10 0-5.523437-4.480469-10-10-10h-40c-3.511719 0-6.769531 1.84375-8.574219 4.855469l-49.226562 82.039063c-2.675781-3.71875-6.007813-7.1875-9.910157-10.320313 11.378907-12.699219 17.710938-29.074219 17.710938-46.574219 0-19.832031-8.222656-42.921875-21.097656-60.589844l16.640625-11.089843c4.03125-2.683594 5.558593-7.867188 3.625-12.308594l-20-46c-2.199219-5.066406-8.09375-7.386719-13.15625-5.183594s-7.386719 8.09375-5.183594 13.15625l16.664063 38.332031-12.214844 8.136719c-10.953125-9.472656-23.015625-14.453125-35.277344-14.453125s-24.324219 4.980469-35.28125 14.453125l-12.214844-8.136719 16.667969-38.332031c2.199219-5.0625-.121094-10.953125-5.183594-13.15625-5.066406-2.199219-10.957031.117188-13.160156 5.183594l-20 46c-1.929687 4.4375-.402344 9.625 3.625 12.308594l16.644531 11.089843c-12.878906 17.667969-21.097656 40.757813-21.097656 60.589844 0 17.5 6.332031 33.875 17.710938 46.574219-3.90625 3.132813-7.234376 6.601563-9.910157 10.320313l-49.226562-82.039063c-1.808594-3.015625-5.0625-4.855469-8.574219-4.855469h-40c-5.523438 0-10 4.476563-10 10 0 5.519532 4.476562 10 10 10h34.339844l55.773437 92.960938c.082031 1.089844.207031 2.199218.375 3.324218l-47.328125-15.773437c-3.589844-1.195313-7.550781-.261719-10.230468 2.414063l-37.070313 37.074218h-55.859375c-5.519531 0-10 4.476563-10 10 0 5.519532 4.480469 10 10 10h60c2.652344 0 5.195312-1.054687 7.070312-2.929687l35.628907-35.628907 56.863281 18.949219c1.445312 2.464844 3.027344 4.894531 4.726562 7.25-3.34375 3.789063-6.492187 7.917969-9.425781 12.359375h-34.863281c-4.304688 0-8.125 2.753906-9.488281 6.835938l-39.089844 117.273437-77.785156 64.171875c-4.261719 3.515625-4.863281 9.820313-1.351563 14.078125 3.523438 4.269531 9.828125 4.859375 14.078125 1.351563l80-66c1.449219-1.195313 2.53125-2.769532 3.125-4.550782l37.71875-113.171874h16.828125c-9.105468 20.742187-14.035156 45.019531-14.035156 70.007812 0 34.1875 9.171875 72.476562 24.535156 102.417969 17.726563 34.554687 40.976563 53.582031 65.464844 53.582031 24.484375 0 47.734375-19.027344 65.464844-53.582031 15.363281-29.941407 24.535156-68.230469 24.535156-102.417969 0-24.988281-4.929688-49.257812-14.039062-69.996094h16.828124l37.722657 113.160156c.59375 1.78125 1.675781 3.355469 3.121093 4.550782l80 66c4.261719 3.511718 10.5625 2.910156 14.078126-1.351563 3.515624-4.257812 2.910156-10.5625-1.347657-14.078125zm-276.363281-238.28125c0-7.335937 4.984375-14.648437 13.554688-20.234375 10.953124 6.707031 23.421874 10.234375 36.445312 10.234375 13.019531 0 25.488281-3.527344 36.441406-10.234375 8.574219 5.585938 13.558594 12.898438 13.558594 20.234375 0 17.394532-23.179688 50-50 50-26.515625 0-50-32.355468-50-50zm50-150c26.058594 0 50 40.917969 50 70 0 15.871094-7.289062 30.453125-19.996094 40-8.710937 6.542969-19.085937 10-30.003906 10s-21.296875-3.457031-30.003906-9.996094c-12.707032-9.550781-19.996094-24.132812-19.996094-40.003906 0-28.785156 23.796875-70 50-70zm47.667969 383.28125c-13.925781 27.148438-31.300781 42.714844-47.667969 42.714844s-33.742188-15.566406-47.671875-42.714844c-13.980469-27.25-22.328125-62.121094-22.328125-93.285156 0-27.796875 6.730469-54.390625 18.957031-74.875 2.722657-4.5625 5.679688-8.742188 8.835938-12.523438 12.753906 11.28125 27.433593 17.402344 42.207031 17.402344 14.769531 0 29.453125-6.125 42.207031-17.402344 3.15625 3.78125 6.113281 7.960938 8.835938 12.527344 12.222656 20.480469 18.957031 47.074219 18.957031 74.871094 0 31.164062-8.347656 66.035156-22.332031 93.285156zm0 0"/></svg>