<?xml version="1.0" encoding="iso-8859-1"?>
<!-- Generator: Adobe Illustrator 19.0.0, SVG Export Plug-In . SVG Version: 6.00 Build 0)  -->
<svg version="1.1" id="Layer_1" xmlns="http://www.w3.org/2000/svg" xmlns:xlink="http://www.w3.org/1999/xlink" x="0px" y="0px"
	 viewBox="0 0 512 512" style="enable-background:new 0 0 512 512;" xml:space="preserve">
<path style="fill:#B29A7E;" d="M164.978,28.444H39.822c0,0,11.378,56.889,79.644,56.889"/>
<path style="fill:#A58868;" d="M347.022,28.444h125.156c0,0-11.378,56.889-79.644,56.889"/>
<path style="fill:#BFA993;" d="M221.867,438.044c0-153.6-130.844-119.467-130.844-273.067C91.022,73.865,164.886,0,256,0
	s164.978,73.865,164.978,164.978c0,153.6-130.844,119.467-130.844,273.067"/>
<path style="fill:#B29A7E;" d="M256,0v438.044h34.133c0-153.6,130.844-119.467,130.844-273.067C420.978,73.865,347.114,0,256,0z"/>
<circle style="fill:#EBAFD1;" cx="256" cy="438.044" r="34.133"/>
<path style="fill:#58575D;" d="M193.422,261.689h-0.003c-12.546,0-22.752-10.208-22.752-22.756
	c0.005-12.55,10.213-22.756,22.756-22.756c12.547,0,22.756,10.208,22.756,22.756C216.178,251.481,205.97,261.689,193.422,261.689z"
	/>
<path style="fill:#454449;" d="M318.578,261.689h-0.003c-12.546,0-22.752-10.208-22.752-22.756
	c0.005-12.55,10.213-22.756,22.756-22.756c12.547,0,22.756,10.208,22.756,22.756C341.333,251.481,331.125,261.689,318.578,261.689z"
	/>
<path style="fill:#E592BF;" d="M256,403.911v68.267c18.851,0,34.133-15.283,34.133-34.133
	C290.133,419.194,274.851,403.911,256,403.911z"/>
<path style="fill:#F9D9EC;" d="M392.533,386.844c-34.505,0-62.578,28.072-62.578,62.578c0,15.684-12.76,28.444-28.444,28.444
	c-15.684,0-28.444-12.76-28.444-28.444l0,0c-0.001-9.424-7.641-17.066-17.067-17.066c-9.425,0-17.067,7.641-17.067,17.066l0,0l0,0
	v0.001v0.001C238.934,483.929,267.006,512,301.511,512s62.578-28.072,62.578-62.578c0-15.684,12.76-28.444,28.444-28.444
	c15.684,0,28.444,12.76,28.444,28.444h34.133C455.111,414.917,427.039,386.844,392.533,386.844z"/>
<g>
</g>
<g>
</g>
<g>
</g>
<g>
</g>
<g>
</g>
<g>
</g>
<g>
</g>
<g>
</g>
<g>
</g>
<g>
</g>
<g>
</g>
<g>
</g>
<g>
</g>
<g>
</g>
<g>
</g>
</svg>
