<svg height="512pt" viewBox="-46 0 512 512" width="512pt" xmlns="http://www.w3.org/2000/svg"><path d="m73.863281 267.503906h272.027344c66.382813 0 66.382813-65.902344 66.382813-66.164062 0-33.671875-18.238282-63.074219-45.371094-78.890625-20.050782-11.683594-36.195313-28.96875-47.683594-49.128907-22.402344-39.3125-64.691406-65.820312-113.171875-65.820312-57.191406 0-105.761719 36.882812-123.234375 88.160156-5 14.667969-15.84375 26.660156-29.8125 33.375-26.917969 12.9375-45.5 40.445313-45.5 72.304688 0 .976562 0 66.164062 66.363281 66.164062zm0 0" fill="#7ac1dd"/><path d="m162.070312 106.519531c15.121094-97.800781 110.195313-80.257812 111.84375-79.945312-19.75-12.085938-43.011718-19.074219-67.867187-19.074219-57.191406 0-105.761719 36.882812-123.234375 88.160156-5 14.667969-15.84375 26.660156-29.8125 33.375-26.917969 12.9375-45.5 40.445313-45.5 72.304688 0 .976562 0 66.164062 66.363281 66.164062h39.046875c52.363282-35.929687 38.171875-89.910156 49.160156-160.984375zm0 0" fill="#60a5c4"/><g fill="#ccf8ff"><path d="m235.855469 351.035156c0 14.34375-11.625 25.96875-25.96875 25.96875-14.339844 0-25.96875-11.625-25.96875-25.96875s11.628906-25.96875 25.96875-25.96875c14.34375 0 25.96875 11.625 25.96875 25.96875zm0 0"/><path d="m130.421875 422.753906c0 14.34375-11.628906 25.96875-25.96875 25.96875-14.34375 0-25.96875-11.625-25.96875-25.96875 0-14.339844 11.625-25.96875 25.96875-25.96875 14.339844 0 25.96875 11.628906 25.96875 25.96875zm0 0"/><path d="m341.292969 422.753906c0 14.34375-11.625 25.96875-25.96875 25.96875s-25.96875-11.625-25.96875-25.96875c0-14.339844 11.625-25.96875 25.96875-25.96875s25.96875 11.628906 25.96875 25.96875zm0 0"/></g><path d="m226.6875 487.699219c0 9.277343-7.519531 16.800781-16.800781 16.800781-9.277344 0-16.796875-7.523438-16.796875-16.800781 0-9.277344 7.519531-16.800781 16.796875-16.800781 9.28125 0 16.800781 7.523437 16.800781 16.800781zm0 0" fill="#abebf4"/><path d="m86.882812 325.066406c0 9.277344-7.519531 16.800782-16.800781 16.800782-9.277343 0-16.800781-7.523438-16.800781-16.800782s7.523438-16.800781 16.800781-16.800781c9.28125 0 16.800781 7.523437 16.800781 16.800781zm0 0" fill="#abebf4"/><path d="m366.492188 325.066406c0 9.277344-7.519532 16.800782-16.800782 16.800782-9.277344 0-16.796875-7.523438-16.796875-16.800782s7.519531-16.800781 16.796875-16.800781c9.28125 0 16.800782 7.523437 16.800782 16.800781zm0 0" fill="#abebf4"/><path d="m209.886719 212.382812c-15.519531 0-28.097657-12.582031-28.097657-28.101562v-20.429688c0-4.234374 3.433594-7.667968 7.671876-7.667968h40.855468c4.238282 0 7.671875 3.433594 7.671875 7.667968v20.429688c0 15.519531-12.582031 28.101562-28.101562 28.101562zm0 0" fill="#57565c"/><path d="m145.863281 184.28125c0-13.183594-13.417969-23.867188-29.972656-23.867188-16.550781 0-29.972656 10.683594-29.972656 23.867188s13.421875 23.871094 29.972656 23.871094c16.554687 0 29.972656-10.6875 29.972656-23.871094zm0 0" fill="#ffa6bb"/><path d="m333.855469 184.28125c0-13.183594-13.417969-23.867188-29.972657-23.867188-16.550781 0-29.972656 10.683594-29.972656 23.867188s13.421875 23.871094 29.972656 23.871094c16.554688 0 29.972657-10.6875 29.972657-23.871094zm0 0" fill="#ffa6bb"/><path d="m290.546875 171.179688c-4.144531 0-7.5-3.359376-7.5-7.5v-12.449219c0-4.144531 3.355469-7.5 7.5-7.5 4.140625 0 7.5 3.355469 7.5 7.5v12.449219c0 4.140624-3.359375 7.5-7.5 7.5zm0 0"/><path d="m129.230469 171.179688c-4.140625 0-7.5-3.359376-7.5-7.5v-12.449219c0-4.144531 3.359375-7.5 7.5-7.5 4.144531 0 7.5 3.355469 7.5 7.5v12.449219c0 4.140624-3.355469 7.5-7.5 7.5zm0 0"/><path d="m345.890625 275.003906h-272.027344c-38.144531 0-56.273437-20.03125-64.761719-36.832031-8.84375-17.511719-9.101562-34.90625-9.101562-36.832031 0-33.503906 19.527344-64.542969 49.75-79.066406 12.210938-5.867188 21.671875-16.453126 25.960938-29.035157 19.007812-55.769531 71.382812-93.238281 130.335937-93.238281 37.324219 0 72.261719 14.691406 98.378906 41.367188 2.894531 2.957031 2.847657 7.707031-.113281 10.605468-2.960938 2.894532-7.707031 2.847656-10.605469-.113281-23.273437-23.769531-54.402343-36.859375-87.660156-36.859375-52.53125 0-99.203125 33.386719-116.136719 83.078125-5.578125 16.367187-17.847656 30.113281-33.664062 37.714844-25.054688 12.042969-41.246094 37.773437-41.246094 65.546875 0 .625.085938 15.410156 7.488281 30.066406 9.589844 18.976562 26.871094 28.597656 51.375 28.597656h272.027344c24.332031 0 41.5625-9.597656 51.21875-28.527344 7.535156-14.761718 7.664063-29.988281 7.664063-30.140624 0-29.6875-15.957032-57.433594-41.648438-72.402344-20.421875-11.90625-37.859375-29.851563-50.425781-51.902344-2.050781-3.597656-.792969-8.175781 2.804687-10.226562 3.597656-2.050782 8.179688-.796876 10.230469 2.800781 11.257813 19.757812 26.800781 35.792969 44.945313 46.367187 30.285156 17.648438 49.097656 50.363282 49.097656 85.371094 0 .753906-.105469 18.65625-9.097656 36.546875-8.511719 16.929687-26.660157 37.113281-64.789063 37.113281zm0 0"/><path d="m209.886719 384.503906c-18.453125 0-33.46875-15.015625-33.46875-33.46875 0-18.457031 15.015625-33.46875 33.46875-33.46875 18.457031 0 33.472656 15.011719 33.472656 33.46875 0 18.453125-15.015625 33.46875-33.472656 33.46875zm0-51.9375c-10.183594 0-18.46875 8.285156-18.46875 18.46875s8.285156 18.46875 18.46875 18.46875c10.1875 0 18.472656-8.285156 18.472656-18.46875s-8.285156-18.46875-18.472656-18.46875zm0 0"/><path d="m104.453125 456.226562c-4.144531 0-7.5-3.359374-7.5-7.5 0-4.144531 3.355469-7.5 7.5-7.5 10.183594 0 18.46875-8.285156 18.46875-18.46875 0-10.1875-8.285156-18.472656-18.46875-18.472656-18.796875 0-19.542969 17.597656-17.613281 24.054688 1.183594 3.96875-.9375 8.164062-4.886719 9.414062-3.945313 1.253906-7.683594-1.121094-9.414063-4.886718-4.144531-9.023438-1.679687-43.582032 31.914063-43.582032 18.453125 0 33.46875 15.015625 33.46875 33.472656 0 18.453126-15.015625 33.46875-33.46875 33.46875zm0 0"/><path d="m315.324219 456.226562c-18.457031 0-33.472657-15.015624-33.472657-33.46875 0-18.457031 15.015626-33.472656 33.472657-33.472656 18.453125 0 33.46875 15.015625 33.46875 33.472656 0 18.453126-15.015625 33.46875-33.46875 33.46875zm0-51.941406c-10.183594 0-18.472657 8.285156-18.472657 18.46875s8.285157 18.46875 18.472657 18.46875c10.183593 0 18.46875-8.285156 18.46875-18.46875s-8.285157-18.46875-18.46875-18.46875zm0 0"/><path d="m209.886719 512c-13.398438 0-24.296875-10.902344-24.296875-24.300781 0-13.398438 10.898437-24.300781 24.296875-24.300781 13.398437 0 24.300781 10.902343 24.300781 24.300781 0 13.398437-10.902344 24.300781-24.300781 24.300781zm0-33.601562c-5.125 0-9.296875 4.171874-9.296875 9.300781 0 5.128906 4.171875 9.300781 9.296875 9.300781 5.128906 0 9.300781-4.171875 9.300781-9.300781 0-5.128907-4.171875-9.300781-9.300781-9.300781zm0 0"/><path d="m70.082031 349.367188c-13.398437 0-24.300781-10.902344-24.300781-24.300782 0-13.398437 10.902344-24.300781 24.300781-24.300781 13.402344 0 24.300781 10.902344 24.300781 24.300781 0 13.398438-10.898437 24.300782-24.300781 24.300782zm0-33.601563c-5.128906 0-9.300781 4.171875-9.300781 9.300781s4.171875 9.300782 9.300781 9.300782c5.128907 0 9.300781-4.171876 9.300781-9.300782s-4.171874-9.300781-9.300781-9.300781zm0 0"/><path d="m349.691406 349.367188c-13.398437 0-24.296875-10.902344-24.296875-24.300782 0-13.398437 10.898438-24.300781 24.296875-24.300781 13.402344 0 24.300782 10.902344 24.300782 24.300781 0 13.398438-10.898438 24.300782-24.300782 24.300782zm0-33.601563c-5.125 0-9.296875 4.171875-9.296875 9.300781s4.171875 9.300782 9.296875 9.300782c5.128906 0 9.300782-4.171876 9.300782-9.300782s-4.171876-9.300781-9.300782-9.300781zm0 0"/><path d="m209.886719 219.882812c-19.628907 0-35.601563-15.96875-35.601563-35.601562v-20.429688c0-8.363281 6.808594-15.167968 15.171875-15.167968h40.859375c8.367188 0 15.171875 6.804687 15.171875 15.167968v20.429688c0 19.632812-15.972656 35.601562-35.601562 35.601562zm-20.601563-56.03125v20.429688c0 11.359375 9.242188 20.601562 20.601563 20.601562s20.601562-9.242187 20.601562-20.601562v-20.429688c0-.09375-41.203125-.09375-41.203125 0zm0 0"/></svg>