<?xml version="1.0" encoding="iso-8859-1"?>
<!-- Generator: Adobe Illustrator 19.0.0, SVG Export Plug-In . SVG Version: 6.00 Build 0)  -->
<svg version="1.1" id="Capa_1" xmlns="http://www.w3.org/2000/svg" xmlns:xlink="http://www.w3.org/1999/xlink" x="0px" y="0px"
	 viewBox="0 0 512 512" style="enable-background:new 0 0 512 512;" xml:space="preserve">
<path style="fill:#88C9DB;" d="M504.399,270.003v112.772c0,64.248-52.082,116.33-116.33,116.33H172.512
	c-64.248,0-116.33-52.082-116.33-116.33v-86.168h64.857v64.37c0,9.905,4.015,18.878,10.504,25.367
	c6.489,6.489,15.461,10.504,25.367,10.504c19.811,0,35.87-16.06,35.87-35.87v-90.974c0-69.196,56.097-125.293,125.303-125.293
	h61.014C448.302,144.71,504.399,200.807,504.399,270.003z"/>
<g>
	<path style="fill:#56A0BF;" d="M90.702,382.778v-86.173H56.18v86.173c0,64.247,52.083,116.33,116.33,116.33h34.522
		C142.785,499.109,90.702,447.026,90.702,382.778z"/>
	<path style="fill:#56A0BF;" d="M352.604,144.71c-69.206,0-125.303,56.097-125.303,125.293v90.974c0,19.811-16.06,35.87-35.87,35.87
		c-6.256,0-29.402,2.819-34.522,0c19.811,0,35.87-16.06,35.87-35.87v-90.974c0-69.196,56.097-125.293,125.303-125.293
		L352.604,144.71L352.604,144.71z"/>
</g>
<path style="fill:#FFFFFF;" d="M504.399,382.775c0,64.248-52.082,116.33-116.33,116.33H172.512
	c-63.518,0-115.144-50.906-116.3-114.141c1.166,41.132,34.867,74.113,76.273,74.113h47.226c8.638,0,16.931-1.43,24.677-4.076
	c11.142-3.812,21.129-10.118,29.28-18.27c13.809-13.809,22.345-32.89,22.345-53.958c0-25.935,21.027-46.962,46.972-46.962h154.452
	c19.933,0,36.965,12.42,43.779,29.949C503.274,371.034,504.399,376.773,504.399,382.775z"/>
<path style="fill:#C9E4FF;" d="M504.399,338.672v44.103c0,64.248-52.082,116.33-116.33,116.33H172.512
	c-63.518,0-115.144-50.906-116.3-114.141c1.166,41.132,34.867,74.113,76.273,74.113h47.226c8.638,0,16.931-1.43,24.677-4.076
	h183.681c54.921,0,100.95-38.05,113.147-89.24C503.304,357.073,504.399,347.999,504.399,338.672z"/>
<g>
	<path style="fill:#56A0BF;" d="M171.032,268.852h-39.826c-23.134,0-41.888,18.753-41.888,41.888v13.616h39.827
		c23.134,0,41.888-18.753,41.888-41.888V268.852z"/>
	<path style="fill:#56A0BF;" d="M47.43,268.852H7.604v13.616c0,23.134,18.753,41.888,41.888,41.888h39.827V310.74
		C89.318,287.607,70.565,268.852,47.43,268.852z"/>
</g>
<path d="M156.907,389.246c-15.586,0-28.266-12.68-28.266-28.266v-14.023c0-4.199-3.404-7.604-7.604-7.604
	c-4.2,0-7.604,3.405-7.604,7.604v14.023c0,23.972,19.502,43.474,43.474,43.474s43.474-19.503,43.474-43.474v-90.974
	c0-64.897,52.798-117.696,117.696-117.696h61.019c32.69,0,63.068,13.088,85.536,36.852c2.886,3.053,7.699,3.186,10.75,0.301
	c3.052-2.885,3.188-7.698,0.301-10.75c-25.37-26.834-59.672-41.611-96.588-41.611h-61.019c-73.283,0-132.904,59.62-132.904,132.904
	v90.974C185.174,376.566,172.493,389.246,156.907,389.246z"/>
<path d="M492.562,200.77c-2.192-3.584-6.873-4.711-10.454-2.52c-3.583,2.191-4.711,6.871-2.52,10.454
	c11.255,18.408,17.204,39.605,17.204,61.302v75.035c-9.939-10.363-23.905-16.833-39.362-16.833H302.98
	c-30.09,0-54.57,24.481-54.57,54.57c0,37.881-30.818,68.699-68.7,68.699h-18.966c-4.2,0-7.604,3.405-7.604,7.604
	c0,4.199,3.404,7.604,7.604,7.604h18.966c46.268,0,83.908-37.641,83.908-83.907c0-18.003,12.153-33.212,28.684-37.879v31.484
	c0,63.478-51.643,115.121-115.121,115.121h-4.669c-31.415,0-59.755-13.397-79.623-34.772c11.802,6.345,25.284,9.954,39.595,9.954
	h2.911c4.2,0,7.604-3.405,7.604-7.604c0-4.199-3.404-7.604-7.604-7.604h-2.911c-37.881,0-68.7-30.818-68.7-68.699v-13.866v-21.955
	c0-4.199-3.404-7.604-7.604-7.604s-7.604,3.405-7.604,7.604v21.955v13.866c0,68.338,55.597,123.934,123.935,123.934h215.553
	c68.337,0,123.934-55.597,123.934-123.934V270.007C512,245.509,505.278,221.568,492.562,200.77z M361.529,343.416h38.812v32.969
	c0,60.959-47.629,110.996-107.627,114.87c40.927-22.005,68.816-65.24,68.816-114.87V343.416z M346.734,491.254
	c40.926-22.005,68.815-65.24,68.815-114.871v-32.969h38.811v32.969C454.359,437.344,406.731,487.379,346.734,491.254z
	 M307.51,376.384v-32.969h38.811v32.969c0,60.959-47.628,110.994-107.626,114.87C279.621,469.25,307.51,426.015,307.51,376.384z
	 M401.902,490.628c40.298-22.191,67.666-65.08,67.666-114.244v-31.045c15.781,5.129,27.224,19.969,27.224,37.439
	C496.792,438.043,455.345,483.811,401.902,490.628z"/>
<path d="M294.551,289.05c-1.738-2.643-5.109-3.931-8.17-3.15c-3.084,0.787-5.392,3.451-5.722,6.625
	c-0.679,6.514,7.146,10.786,12.278,6.715C295.993,296.815,296.748,292.3,294.551,289.05z"/>
<path d="M473.053,285.816c-3.045,0.571-5.482,3.119-6.003,6.155c-0.538,3.136,0.987,6.382,3.775,7.932
	c6.162,3.427,13.454-3.012,10.735-9.546C480.189,287.068,476.565,285.092,473.053,285.816z"/>
<path d="M89.319,331.96h39.825c27.29,0,49.492-22.202,49.492-49.492v-13.616c0-4.199-3.404-7.604-7.604-7.604h-39.826
	c-17.625,0-33.117,9.269-41.887,23.18c-8.77-13.911-24.263-23.18-41.888-23.18H7.604c-4.2,0-7.604,3.405-7.604,7.604v13.616
	c0,27.29,22.202,49.492,49.492,49.492H89.319z M131.206,276.456h32.223v6.012c0,18.904-15.38,34.284-34.284,34.284H96.923v-6.012
	C96.923,291.836,112.302,276.456,131.206,276.456z M15.208,282.468v-6.012H47.43c18.904,0,34.284,15.379,34.284,34.284v6.012H49.492
	C30.588,316.752,15.208,301.373,15.208,282.468z"/>
<path d="M265.165,56.231c4.2,0,7.604-3.405,7.604-7.604c0-15.513,12.62-28.133,28.133-28.133s28.133,12.621,28.133,28.133v70.714
	c0,4.199,3.404,7.604,7.604,7.604c4.2,0,7.604-3.405,7.604-7.604V48.627c0-23.899-19.443-43.341-43.341-43.341
	c-23.898,0-43.341,19.442-43.341,43.341C257.561,52.827,260.965,56.231,265.165,56.231z"/>
<path d="M364.012,126.944c4.2,0,7.604-3.405,7.604-7.604V48.627c0-15.513,12.62-28.133,28.133-28.133s28.133,12.621,28.133,28.133
	c0,4.199,3.404,7.604,7.604,7.604c4.2,0,7.604-3.405,7.604-7.604c0-23.899-19.443-43.341-43.341-43.341
	c-23.898,0-43.341,19.443-43.341,43.341v70.714C356.408,123.54,359.812,126.944,364.012,126.944z"/>
<g>
</g>
<g>
</g>
<g>
</g>
<g>
</g>
<g>
</g>
<g>
</g>
<g>
</g>
<g>
</g>
<g>
</g>
<g>
</g>
<g>
</g>
<g>
</g>
<g>
</g>
<g>
</g>
<g>
</g>
</svg>
